<?xml version="1.0" encoding="utf-8"?><svg xmlns="http://www.w3.org/2000/svg" xmlns:xlink="http://www.w3.org/1999/xlink"><symbol viewBox="0 0 10 6" id="icon__arrow" xmlns="http://www.w3.org/2000/svg">
    <path d="M0.920966 2.3288C0.428784 1.88587 0.428784 1.11413 0.920966 0.671205C1.34499 0.289618 1.98864 0.289618 2.41266 0.671205L5.01528 3.01335C5.89813 3.80785 5.88329 5.20551 5.00045 6L0.920966 2.3288Z"/>
    <path d="M7.5873 0.671267C8.01134 0.289662 8.65503 0.289662 9.07907 0.671267C9.57125 1.11419 9.57128 1.88591 9.07914 2.32887L5.00045 6C4.11721 5.2056 4.10216 3.80761 4.98518 3.01297L7.5873 0.671267Z"/>
</symbol><symbol viewBox="0 0 24 24" id="icon__cursor" xmlns="http://www.w3.org/2000/svg">
    <g clip-path="url(#bclip0_2_123)">
        <path d="M16.2657 24C15.2144 24 14.2004 23.4135 13.712 22.4157L12.2984 19.769L11.4965 21.2996C11.476 21.3389 11.4526 21.3767 11.4267 21.4127C10.9005 22.143 10.0346 22.4025 9.39351 22.4025C9.38835 22.4025 9.38319 22.4025 9.37799 22.4025C8.66155 22.3978 7.94815 22.0903 7.42085 21.559C6.8732 21.0071 6.57165 20.2746 6.57165 19.4962V7.35762C6.57165 6.25047 7.19547 5.27302 8.19959 4.80671C9.19419 4.3448 10.3312 4.49161 11.1747 5.18869L17.3504 9.78769C17.7657 10.0969 17.8516 10.6843 17.5424 11.0995C17.2331 11.5148 16.6458 11.6007 16.2306 11.2915L10.0341 6.67699C10.0187 6.66555 10.0037 6.65369 9.98911 6.64132C9.56502 6.28319 9.11675 6.44819 8.98935 6.5073C8.86203 6.56641 8.44672 6.80243 8.44672 7.35762V19.4963C8.44672 20.1003 8.94402 20.5246 9.39041 20.5275C9.39182 20.5275 9.39332 20.5275 9.39473 20.5275C9.57716 20.5275 9.77774 20.452 9.87768 20.3495L11.4601 17.3289C11.6213 17.0212 11.9395 16.8279 12.2868 16.8265C12.2881 16.8265 12.2893 16.8265 12.2906 16.8265C12.6365 16.8265 12.9544 17.017 13.1175 17.3223L15.3746 21.5484C15.381 21.5603 15.3871 21.5723 15.3929 21.5845C15.6179 22.0534 16.185 22.2574 16.657 22.0389C16.8919 21.9302 17.0692 21.7362 17.1563 21.4924C17.2407 21.2561 17.2299 21.0022 17.1262 20.7747L14.8483 16.7211C14.6851 16.4308 14.6882 16.0758 14.8564 15.7884C15.0246 15.501 15.3326 15.3244 15.6656 15.3244H18.8797C19.4237 15.2966 19.6409 14.8682 19.6948 14.7366C19.7501 14.6017 19.9003 14.1292 19.5121 13.7175C19.157 13.3408 19.1744 12.7475 19.5511 12.3922C19.9278 12.037 20.5212 12.0545 20.8764 12.4312C21.6456 13.2471 21.8577 14.4028 21.4299 15.4473C21.0045 16.4861 20.0484 17.1572 18.935 17.1987C18.9233 17.1992 18.9117 17.1994 18.9 17.1994H17.2678L18.777 19.885C18.7863 19.9015 18.7951 19.9183 18.8033 19.9353C19.1376 20.6246 19.1797 21.4016 18.922 22.1231C18.6643 22.8446 18.1395 23.4191 17.4442 23.7407C17.0634 23.9166 16.6619 24 16.2657 24ZM7.63169 3.68169C8.08573 3.43274 8.2519 2.86287 8.00295 2.40889L7.20606 0.955746C6.95711 0.501758 6.38734 0.335584 5.9333 0.58454C5.47926 0.833495 5.31309 1.40336 5.56205 1.85735L6.35893 3.31049C6.52946 3.62146 6.85047 3.79738 7.18178 3.79738C7.33413 3.79738 7.48872 3.76016 7.63169 3.68169ZM5.64919 5.81364C5.85671 5.33926 5.64038 4.78646 5.16604 4.57894L3.66603 3.92268C3.19165 3.71512 2.63889 3.93149 2.43133 4.40583C2.22381 4.88021 2.44014 5.43301 2.91447 5.64053L4.41449 6.29678C4.53679 6.35032 4.66429 6.37563 4.78977 6.37563C5.15095 6.37558 5.49516 6.16567 5.64919 5.81364ZM11.4923 2.78117L12.0079 1.23428C12.1716 0.743073 11.9062 0.212114 11.415 0.0484251C10.9239 -0.115405 10.3928 0.150145 10.2291 0.641353L9.71348 2.18824C9.54974 2.67945 9.8152 3.21041 10.3064 3.3741C10.4047 3.40691 10.5047 3.42247 10.603 3.42247C10.9955 3.42247 11.3613 3.17399 11.4923 2.78117ZM13.9734 5.15996L15.239 4.22245C15.6551 3.91424 15.7425 3.32713 15.4343 2.91106C15.1261 2.495 14.539 2.40757 14.123 2.71573L12.8573 3.65324C12.4413 3.96145 12.3538 4.54856 12.662 4.96463C12.8459 5.21293 13.1292 5.34418 13.4161 5.34418C13.61 5.34418 13.8056 5.28423 13.9734 5.15996ZM3.73222 10.4334L5.13848 9.87085C5.61924 9.67857 5.85305 9.13294 5.66077 8.65223C5.46844 8.17143 4.92276 7.93761 4.44215 8.12994L3.03588 8.69245C2.55513 8.88473 2.32131 9.43036 2.5136 9.91107C2.66022 10.2776 3.01226 10.5007 3.38431 10.5007C3.50023 10.5007 3.61803 10.479 3.73222 10.4334Z"/>
    </g>
    <defs>
        <clipPath id="bclip0_2_123">
            <rect width="24" height="24"/>
        </clipPath>
    </defs>
</symbol><symbol viewBox="0 -960 960 960" id="icon__delete" xmlns="http://www.w3.org/2000/svg">
    <path d="m256-200-56-56 224-224-224-224 56-56 224 224 224-224 56 56-224 224 224 224-56 56-224-224-224 224Z"/>
</symbol><symbol viewBox="0 0 16 16" id="icon__phone" xmlns="http://www.w3.org/2000/svg">
    <g clip-path="url(#dclip0_2_57)">
        <path d="M1.73378 0.717495C1.69775 0.75601 1.63687 0.836458 1.59619 0.891745C0.839857 1.8947 -0.0640103 3.43655 0.00370212 4.92467C0.118627 7.41636 3.48126 10.7281 4.50937 11.6838C5.53779 12.6392 9.08617 15.7512 11.5772 15.6835C11.9925 15.6732 12.4327 15.586 12.8849 15.4238C13.9288 15.0495 14.8712 14.3376 15.4698 13.8136C15.4698 13.8136 15.5987 13.704 15.6484 13.6512C15.7735 13.5161 15.8726 13.3188 15.9512 13.0483C15.9913 12.9101 16 12.7644 16 12.6669C16 12.5582 15.9891 12.3476 15.9177 12.1559C15.8198 11.8938 15.7077 11.7062 15.5735 11.58C15.4741 11.4878 13.2281 9.72821 13.2138 9.71827L13.1967 9.70709C13.075 9.6136 12.9479 9.5406 12.8187 9.48997C12.4802 9.35734 12.1053 9.35206 11.7627 9.47444C11.5449 9.55241 11.3489 9.68131 11.1977 9.84469L10.4258 10.6709C10.3534 10.7486 10.219 10.829 10.1714 10.8405C10.1214 10.8498 10.0866 10.8523 10.0643 10.8529L4.88396 6.03882C4.87154 6.02701 4.86533 6.01552 4.86191 6.00745C4.86439 5.99999 4.8675 5.99347 4.86905 5.9885C4.888 5.94998 4.97746 5.82761 5.08927 5.70647L5.85306 4.87963C6.25716 4.44509 6.35748 3.76921 6.1003 3.24211C6.00867 3.05419 5.88319 2.9138 5.8251 2.84764L5.79497 2.81037C5.78006 2.79328 3.88909 0.718116 3.80429 0.640154C3.59401 0.444782 3.2629 0.339175 2.79233 0.316811C2.5308 0.304387 2.2028 0.381418 2.0124 0.49976C1.89002 0.576479 1.79839 0.647919 1.73378 0.717495ZM3.1604 1.31479C3.26632 1.42226 4.98739 3.30734 5.07747 3.40611L5.14084 3.48283C5.16662 3.51172 5.22718 3.57974 5.26259 3.6518C5.35453 3.84065 5.3185 4.08665 5.16941 4.24724L4.4047 5.075C4.31524 5.1716 4.09782 5.41885 4.01147 5.62478C3.95432 5.76207 3.92729 5.88165 3.92698 6.02049C3.9363 6.28575 4.04874 6.53299 4.24691 6.71967L9.4794 11.5822C9.6785 11.767 9.96798 11.8261 10.3401 11.7574C10.6277 11.7043 10.9393 11.4869 11.107 11.3073L11.8801 10.4796C11.9316 10.424 12 10.3799 12.077 10.3519C12.2056 10.3059 12.3522 10.3081 12.4789 10.3578C12.5529 10.3867 12.6144 10.4348 12.6345 10.4507C12.6538 10.4656 12.6693 10.4765 12.6833 10.4852C12.8986 10.652 14.8299 12.1699 14.9346 12.2581C14.9349 12.2587 14.9806 12.31 15.0449 12.4817C15.0539 12.506 15.0682 12.5774 15.0682 12.6666C15.0682 12.7308 15.061 12.7728 15.0563 12.788C15.0079 12.9545 14.9678 13.0129 14.9678 13.0141C14.9377 13.0443 14.875 13.0961 14.8644 13.1051C14.318 13.5832 13.4769 14.2215 12.5703 14.5463C12.2118 14.6749 11.8701 14.7439 11.5533 14.7517C9.85151 14.7979 7.03678 12.7597 5.14394 11.0008C3.25079 9.24211 1.01287 6.58362 0.934592 4.88181C0.87744 3.65491 1.67539 2.33452 2.33232 1.46295L2.35748 1.42941C2.37208 1.40953 2.39848 1.37226 2.41215 1.3561C2.43545 1.33405 2.47023 1.31262 2.49788 1.29523C2.53919 1.2741 2.66747 1.24428 2.74761 1.24832C3.0228 1.26168 3.15015 1.31107 3.1604 1.31479Z"/>
    </g>
    <defs>
        <clipPath id="dclip0_2_57">
            <rect width="16" height="16" transform="translate(0 16) rotate(-90)"/>
        </clipPath>
    </defs>
</symbol><symbol viewBox="0 0 13 16" id="icon__place" xmlns="http://www.w3.org/2000/svg">
    <path d="M11.7833 2.78191C10.5618 1.01409 8.62597 0 6.47251 0C4.31904 0 2.38319 1.01409 1.16172 2.78191C-0.053745 4.54078 -0.334401 6.76756 0.409474 8.73491C0.608443 9.27216 0.924724 9.79412 1.34729 10.2832L6.0466 15.8031C6.15288 15.928 6.3086 16 6.47251 16C6.63641 16 6.79213 15.928 6.89841 15.8031L11.5964 10.2847C12.0208 9.79281 12.3367 9.27141 12.534 8.73847C13.2794 6.76756 12.9988 4.54078 11.7833 2.78191ZM11.4864 8.34666C11.3343 8.75784 11.0858 9.16438 10.7485 9.55541C10.7476 9.55634 10.7466 9.55728 10.7459 9.55841L6.47251 14.5777L2.19651 9.55525C1.85935 9.16456 1.61094 8.75806 1.45729 8.34294C0.842099 6.71591 1.07557 4.87478 2.08201 3.41819C3.0916 1.95694 4.69197 1.11888 6.47251 1.11888C8.25301 1.11888 9.85319 1.95691 10.8628 3.41819C11.8694 4.87478 12.1031 6.71591 11.4864 8.34666Z"/>
    <path d="M6.47215 3.31934C4.74478 3.31934 3.33928 4.72464 3.33928 6.4522C3.33928 8.17976 4.74459 9.58507 6.47215 9.58507C8.19972 9.58507 9.60503 8.17976 9.60503 6.4522C9.60503 4.72483 8.19953 3.31934 6.47215 3.31934ZM6.47215 8.46617C5.36165 8.46617 4.45815 7.56267 4.45815 6.45217C4.45815 5.34167 5.36165 4.43818 6.47215 4.43818C7.58265 4.43818 8.48615 5.34167 8.48615 6.45217C8.48615 7.56267 7.58265 8.46617 6.47215 8.46617Z"/>
</symbol><symbol viewBox="-.141 .5 842.68 145.89" id="icon__rutube" xmlns="http://www.w3.org/2000/svg">
    <path d="m92.885 42.977h-93.026v103.413h25.892v-33.644h49.614l22.635 33.644h28.993l-24.962-33.799c7.752-1.241 13.334-4.187 16.745-8.838s5.116-12.093 5.116-22.016v-7.752c0-5.892-.62-10.543-1.705-14.109-1.086-3.566-2.946-6.667-5.582-9.457-2.791-2.636-5.891-4.497-9.612-5.737-3.721-1.085-8.373-1.705-14.11-1.705zm-4.186 46.977h-62.949v-24.186h62.95c3.566 0 6.046.62 7.287 1.705 1.238 1.085 2.013 3.101 2.013 6.047v8.682c0 3.101-.775 5.117-2.015 6.202s-3.722 1.55-7.287 1.55zm73.286 25.892v-72.87h-25.892v72.25c0 5.892.465 10.698 1.55 14.264 1.085 3.721 2.946 6.822 5.737 9.458 2.635 2.79 5.736 4.651 9.457 5.736 3.721 1.241 8.373 1.706 14.264 1.706h62.017c5.737 0 10.388-.465 14.109-1.706 3.721-1.085 6.822-2.946 9.613-5.736 2.635-2.636 4.496-5.737 5.581-9.458 1.085-3.566 1.706-8.372 1.706-14.264v-72.25h-25.893v72.87c0 3.101-.775 5.117-2.015 6.202s-3.721 1.551-7.287 1.551h-53.645c-3.721 0-6.201-.466-7.442-1.551-1.24-1.085-1.86-3.101-1.86-6.202zm185.728 30.544v-80.622h50.079v-22.791h-126.05v22.79h50.079v80.623zm87.578-30.544v-72.87h-25.892v72.25c0 5.892.465 10.698 1.551 14.264 1.085 3.721 2.945 6.822 5.736 9.458 2.636 2.79 5.737 4.651 9.458 5.736 3.721 1.241 8.372 1.706 14.264 1.706h62.017c5.736 0 10.387-.465 14.108-1.706 3.721-1.085 6.822-2.946 9.613-5.736 2.636-2.636 4.496-5.737 5.582-9.458 1.085-3.566 1.705-8.372 1.705-14.264v-72.25h-25.892v72.87c0 3.101-.775 5.117-2.016 6.202-1.24 1.085-3.721 1.551-7.287 1.551h-53.644c-3.721 0-6.202-.466-7.442-1.551-1.241-1.085-1.861-3.101-1.861-6.202zm229.358-42.791v-2.016c0-9.612-2.48-16.744-7.442-21.24-4.961-4.497-12.868-6.822-23.411-6.822h-87.909v103.413h93.025c10.543 0 18.45-2.171 23.412-6.667 4.961-4.496 7.442-11.628 7.442-21.241v-2.17c0-9.613-2.481-16.435-7.442-20.466-.931-.62-1.861-1.085-2.791-1.55a39.433 39.433 0 0 0 -4.031-1.706c3.411-1.86 5.736-4.341 7.132-7.132 1.24-2.79 2.015-6.977 2.015-12.403zm-92.87 11.318v-18.605h57.831c3.721 0 6.201.62 7.442 1.705 1.24 1.085 1.86 3.101 1.86 6.047v3.1c0 3.102-.62 5.117-1.86 6.202-1.241 1.086-3.721 1.55-7.442 1.55zm0 39.226v-18.606h63.102c3.566 0 6.047.621 7.287 1.706 1.241 1.085 2.016 3.101 2.016 6.047v3.1c0 3.101-.775 5.117-2.016 6.202-1.24 1.085-3.721 1.551-7.287 1.551zm133.106-57.831h84.653v-22.791h-110.545v103.413h114.731v-22.791h-88.839v-17.52h82.638l2.015-22.791h-84.653z"/>
    <circle cx="824.422" cy="18.617" r="18.117"/>
</symbol><symbol viewBox="0 0 18 18" id="icon__search" xmlns="http://www.w3.org/2000/svg">
    <path d="M13.3077 13.3077L17 17M15.7692 8.38462C15.7692 12.463 12.463 15.7692 8.38462 15.7692C4.3062 15.7692 1 12.463 1 8.38462C1 4.3062 4.3062 1 8.38462 1C12.463 1 15.7692 4.3062 15.7692 8.38462Z"/>
</symbol><symbol viewBox="0 -960 960 960" id="icon__search--modal" xmlns="http://www.w3.org/2000/svg">
    <path d="M784-120 532-372q-30 24-69 38t-83 14q-109 0-184.5-75.5T120-580q0-109 75.5-184.5T380-840q109 0 184.5 75.5T640-580q0 44-14 83t-38 69l252 252-56 56ZM380-400q75 0 127.5-52.5T560-580q0-75-52.5-127.5T380-760q-75 0-127.5 52.5T200-580q0 75 52.5 127.5T380-400Z"/>
</symbol><symbol viewBox="0 0 106 24" id="icon__sign--big" xmlns="http://www.w3.org/2000/svg">
    <path d="M9.06341 19.7944C11.4161 19.7944 13.3799 19.0216 14.9596 17.4807H15.0763L15.8492 19.3327H19.5872V0.82736H15.8492L15.0763 2.67935H14.9596C13.3799 1.13846 11.4112 0.36558 9.06341 0.36558C6.44341 0.36558 4.28519 1.25026 2.62764 3.06336C0.970082 4.87646 0.158318 7.19023 0.158318 10.0776C0.158318 15.7891 3.81854 19.7944 9.06341 19.7944ZM9.98698 14.3211C7.67321 14.3211 6.13231 12.5858 6.13231 10.0824C6.13231 7.61312 7.67321 5.84377 9.98698 5.84377C12.2619 5.84377 13.7639 7.69576 13.7639 9.85398V10.3158C13.7639 12.474 12.2619 14.3211 9.98698 14.3211ZM32.7698 19.7944C35.6232 19.7944 37.9758 18.8709 39.784 16.98C41.5971 15.0891 42.5207 12.8142 42.5207 10.0776C42.5207 7.34091 41.5971 5.06603 39.784 3.17516C37.9709 1.28428 35.6183 0.360718 32.7309 0.360718C29.8776 0.360718 27.525 1.28428 25.7167 3.17516C23.9036 5.06603 22.9801 7.34091 22.9801 10.0776C22.8634 15.3613 27.0632 19.8722 32.7698 19.7944ZM32.7698 14.2044C30.5727 14.2044 28.9541 12.4302 28.9541 10.0776C28.9541 7.72492 30.5727 5.95071 32.7698 5.95071C34.9669 5.95071 36.5856 7.72492 36.5856 10.0776C36.5856 12.4351 34.9669 14.2044 32.7698 14.2044ZM63.7627 1.0218H47.9552V5.72711C47.9552 8.11865 47.9163 9.89287 47.7996 11.0838C47.6829 12.2795 47.4156 13.3975 46.9878 14.4767H43.9061V23.688H48.7621V19.3327H60.4427V23.688H65.2987V14.4767H63.7578V1.0218H63.7627ZM58.0998 5.91668V14.4767H52.7042C53.166 12.9747 53.4382 10.9282 53.4771 9.34845C53.516 8.53668 53.516 7.41869 53.516 5.91668H58.0998ZM80.5326 7.65201H75.0982V0.82736H69.0853V19.3327H75.0982V12.508H80.5326V19.3327H86.5844V0.82736H80.5326V7.65201ZM89.5544 0.82736V5.91668H94.6826V19.3327H100.734V5.91668H105.901V0.82736H89.5544Z"/>
</symbol><symbol viewBox="0 0 48 28" id="icon__title" xmlns="http://www.w3.org/2000/svg">
    <path d="M3.91327 4.49811V3.3947C3.91327 2.46141 3.35913 2.04338 2.48904 2.04338C1.99323 2.04338 1.5509 2.1649 1.30785 2.24753V2.87945C1.58492 2.75792 1.96406 2.64126 2.42098 2.64126C2.94595 2.64126 3.23275 2.91347 3.23275 3.29748V3.40442C2.98971 3.35095 2.6932 3.31206 2.43071 3.31206C1.78908 3.31206 1.05508 3.5551 1.05508 4.34742C1.05508 4.9842 1.57519 5.29043 2.13419 5.29043C2.61542 5.29043 2.99457 5.13488 3.29594 4.89184C3.40288 5.14461 3.63134 5.25154 3.91327 5.25154C4.06882 5.25154 4.2195 5.22724 4.35074 5.17377V4.67796C4.28755 4.69741 4.21465 4.71685 4.1466 4.71685C4.01535 4.72171 3.91327 4.6731 3.91327 4.49811ZM2.5571 3.79815C2.77584 3.79815 3.03832 3.83703 3.22303 3.87592V4.39603C2.97999 4.63908 2.65918 4.7606 2.32864 4.7606C2.0224 4.7606 1.75019 4.60505 1.75019 4.30368C1.75506 3.91967 2.16337 3.79815 2.5571 3.79815ZM5.52708 5.21266V3.12249L6.40203 4.47381H6.8152L7.69502 3.12249V5.21266H8.3561V2.13087H7.661L6.60619 3.7544L5.56111 2.13087H4.86601V5.21266H5.52708ZM10.6018 4.45436L9.56159 2.13087H8.82761L10.2907 5.24182L10.2275 5.39737C10.0477 5.87859 9.79492 6.11678 9.46438 6.11678C9.3623 6.11678 9.2505 6.1022 9.14843 6.07303V6.65633C9.28453 6.69036 9.42063 6.7098 9.55187 6.7098C10.0185 6.7098 10.456 6.43759 10.7914 5.63555L12.2351 2.13573H11.5157L10.6018 4.45436ZM13.3628 2.6121V2.13087H12.7503V6.62717H13.4357V4.81407C13.6496 5.05711 14.0093 5.29529 14.5488 5.29529C15.4724 5.29529 16.08 4.55644 16.08 3.67176C16.08 2.78709 15.4773 2.04824 14.5488 2.04824C13.9753 2.04338 13.6058 2.31558 13.3628 2.6121ZM15.38 3.67176C15.38 4.27451 14.9814 4.69255 14.4224 4.69255C13.9461 4.69255 13.5864 4.38631 13.4406 4.04605V3.29262C13.5864 2.95722 13.9461 2.65098 14.4224 2.65098C14.9814 2.64612 15.38 3.06416 15.38 3.67176ZM16.5564 3.69607C16.5564 4.79462 17.3973 5.29529 18.2188 5.29529C18.6125 5.29529 18.943 5.22238 19.2396 5.08141V4.44464C18.9965 4.58561 18.666 4.68282 18.3403 4.68282C17.7862 4.68282 17.2563 4.36687 17.2563 3.6669C17.2563 2.94264 17.8105 2.65098 18.3549 2.65098C18.6709 2.65098 18.9868 2.7482 19.2104 2.90861V2.2767C18.9382 2.11629 18.6077 2.03852 18.2577 2.03852C17.4362 2.04338 16.5564 2.54404 16.5564 3.69607ZM20.6152 5.21266V3.93425H21.111L22.1269 5.21266H22.9192L21.6797 3.65718L22.7977 2.12601H22.0151L21.1304 3.34609H20.6249V2.12601H19.9395V5.2078H20.6152V5.21266ZM23.9546 5.21266L25.6073 3.1954V5.21266H26.2927V2.13087H25.6996L24.047 4.14813V2.13087H23.3616V5.21266H23.9546ZM29.5592 1.43577V0.87677C29.2335 1.08093 28.9418 1.14898 28.621 1.14898C28.3002 1.14898 28.0086 1.08579 27.6829 0.87677V1.43577C27.9648 1.6302 28.2759 1.69826 28.621 1.69826C28.9662 1.69826 29.2772 1.62534 29.5592 1.43577ZM27.7461 5.21266L29.3988 3.1954V5.21266H30.0841V2.13087H29.4911L27.8384 4.14813V2.13087H27.1579V5.21266H27.7461ZM1.09398 10.7395C1.09398 11.804 1.90574 12.363 2.76611 12.363C3.63135 12.363 4.43825 11.804 4.43825 10.7395C4.43825 9.67493 3.63621 9.11593 2.76611 9.11593C1.90088 9.11107 1.09398 9.67007 1.09398 10.7395ZM3.73342 10.7395C3.73342 11.3422 3.33483 11.7359 2.76125 11.7359C2.1828 11.7359 1.78421 11.3422 1.78421 10.7395C1.78421 10.1367 2.1828 9.74298 2.76125 9.74298C3.33483 9.74298 3.73342 10.1318 3.73342 10.7395ZM8.18597 10.8464C8.18597 9.91311 7.52003 9.34925 6.74229 9.34925C6.26593 9.34925 5.86734 9.58257 5.66318 9.8888C5.75554 9.53396 5.92567 9.13537 6.3194 8.91177C6.97562 8.54721 7.48115 8.69303 7.91376 8.36735V7.70142C7.47628 8.13403 6.80062 7.89585 5.91594 8.44027C5.3618 8.78539 4.96322 9.46591 4.96322 10.5353C4.96322 11.7748 5.66319 12.3678 6.58189 12.3678C7.51032 12.363 8.18597 11.8234 8.18597 10.8464ZM5.65346 10.861C5.65346 10.4284 5.97428 9.94713 6.56731 9.94713C7.18464 9.94713 7.486 10.3846 7.486 10.861C7.486 11.3373 7.18464 11.7748 6.56731 11.7748C5.96942 11.77 5.65346 11.3325 5.65346 10.861ZM10.0331 9.78187H11.0733V12.2803H11.7587V9.19856H9.38174C9.32341 10.7297 9.18245 11.7554 8.66234 11.7554C8.59915 11.7554 8.53595 11.7408 8.46304 11.7165V12.256C8.61859 12.3144 8.75955 12.3387 8.88593 12.3387C9.71228 12.3387 9.94559 11.2693 10.0331 9.78187ZM15.2537 11.5658V10.4624C15.2537 9.5291 14.6995 9.11107 13.8294 9.11107C13.3336 9.11107 12.8913 9.23259 12.6482 9.31522V9.94713C12.9253 9.82561 13.3045 9.70895 13.7614 9.70895C14.2863 9.70895 14.5731 9.9763 14.5731 10.3652V10.4721C14.3301 10.4186 14.0336 10.3798 13.7711 10.3798C13.1295 10.3798 12.3955 10.6228 12.3955 11.4151C12.3955 12.0519 12.9156 12.3581 13.4746 12.3581C13.9558 12.3581 14.335 12.2026 14.6363 11.9595C14.7433 12.2123 14.9717 12.3192 15.2537 12.3192C15.4092 12.3192 15.5599 12.2949 15.6911 12.2415V11.7457C15.6279 11.7651 15.555 11.7845 15.487 11.7845C15.3557 11.7894 15.2537 11.7408 15.2537 11.5658ZM13.8975 10.8658C14.1162 10.8658 14.3787 10.9047 14.5634 10.9436V11.4637C14.3204 11.7068 13.9996 11.8283 13.669 11.8283C13.3628 11.8283 13.0906 11.6727 13.0906 11.3714C13.0954 10.9874 13.5038 10.8658 13.8975 10.8658ZM16.012 10.7638C16.012 11.8623 16.8529 12.363 17.6744 12.363C18.0681 12.363 18.3986 12.2901 18.6951 12.1491V11.5123C18.4521 11.6533 18.1216 11.7505 17.7959 11.7505C17.2417 11.7505 16.7119 11.4346 16.7119 10.7346C16.7119 10.0103 17.2661 9.71868 17.8105 9.71868C18.1264 9.71868 18.4424 9.81589 18.666 9.9763V9.34439C18.3938 9.18398 18.0632 9.10621 17.7133 9.10621C16.8918 9.11107 16.012 9.61174 16.012 10.7638ZM20.8145 12.2803V9.80131H21.8742V9.19856H19.0597V9.80131H20.1242V12.2803H20.8145ZM23.104 12.2803V11.0408H24.6448V12.2803H25.3302V9.19856H24.6448V10.4381H23.104V9.19856H22.4186V12.2803H23.104ZM26.001 10.7395C26.001 11.804 26.8128 12.363 27.6732 12.363C28.5384 12.363 29.3453 11.804 29.3453 10.7395C29.3453 9.67493 28.5433 9.11593 27.6732 9.11593C26.8079 9.11107 26.001 9.67007 26.001 10.7395ZM28.6405 10.7395C28.6405 11.3422 28.2419 11.7359 27.6683 11.7359C27.0898 11.7359 26.6913 11.3422 26.6913 10.7395C26.6913 10.1367 27.0898 9.74298 27.6683 9.74298C28.2419 9.74298 28.6405 10.1318 28.6405 10.7395ZM32.4125 8.50346V7.94446C32.0868 8.14862 31.7952 8.21667 31.4744 8.21667C31.1535 8.21667 30.8619 8.15348 30.5362 7.94446V8.50346C30.8181 8.69789 31.1292 8.76595 31.4744 8.76595C31.8195 8.76595 32.1306 8.69303 32.4125 8.50346ZM30.5994 12.2803L32.2521 10.2631V12.2803H32.9375V9.19856H32.3445L30.6917 11.2158V9.19856H30.0064V12.2803H30.5994ZM1.65784 20.1744V19.3432H4.13688V20.1744H4.78337V18.7793H4.32644V16.2614H1.91546C1.93004 17.3356 1.7988 18.1182 1.42938 18.7793H1.00648V20.1744H1.65784ZM2.56195 16.8301H3.6362V18.7842H2.15364C2.41127 18.2349 2.53765 17.6565 2.56195 16.8301ZM5.15765 17.8023C5.15765 18.8668 5.96941 19.4258 6.82978 19.4258C7.69502 19.4258 8.50192 18.8668 8.50192 17.8023C8.50192 16.7378 7.69988 16.1788 6.82978 16.1788C5.96941 16.1788 5.15765 16.7378 5.15765 17.8023ZM7.79711 17.8023C7.79711 18.405 7.39852 18.7988 6.82493 18.7988C6.24649 18.7988 5.8479 18.405 5.8479 17.8023C5.8479 17.1995 6.24649 16.8058 6.82493 16.8058C7.39852 16.8107 7.79711 17.1995 7.79711 17.8023ZM9.82894 19.348V17.2579L10.7039 18.6092H11.1171L11.9969 17.2579V19.348H12.658V16.2663H11.9629L10.9081 17.8898L9.86297 16.2663H9.16786V19.348H9.82894ZM15.7203 19.348V18.1085H17.2612V19.348H17.9466V16.2663H17.2612V17.5058H15.7203V16.2663H15.0349V19.348H15.7203ZM21.4367 18.6335V17.5301C21.4367 16.5968 20.8825 16.1788 20.0124 16.1788C19.5166 16.1788 19.0743 16.3003 18.8313 16.3829V17.0148C19.1083 16.8933 19.4875 16.7766 19.9444 16.7766C20.4694 16.7766 20.7561 17.0488 20.7561 17.4329V17.5398C20.5131 17.4863 20.2166 17.4474 19.9541 17.4474C19.3125 17.4474 18.5785 17.6905 18.5785 18.4828C18.5785 19.1196 19.0986 19.4258 19.6576 19.4258C20.1388 19.4258 20.518 19.2703 20.8193 19.0272C20.9263 19.28 21.1547 19.3869 21.4367 19.3869C21.5922 19.3869 21.7429 19.3626 21.8742 19.3091V18.8133C21.811 18.8328 21.738 18.8522 21.67 18.8522C21.5436 18.8571 21.4367 18.8085 21.4367 18.6335ZM20.0854 17.9335C20.3041 17.9335 20.5666 17.9724 20.7513 18.0113V18.5314C20.5083 18.7745 20.1874 18.896 19.8569 18.896C19.5507 18.896 19.2785 18.7404 19.2785 18.4391C19.2785 18.055 19.6916 17.9335 20.0854 17.9335ZM23.0019 16.7426V16.2614H22.3894V20.7577H23.0748V18.9446C23.2887 19.1876 23.6484 19.4258 24.1879 19.4258C25.1115 19.4258 25.7191 18.687 25.7191 17.8023C25.7191 16.9176 25.1164 16.1788 24.1879 16.1788C23.6095 16.1788 23.2449 16.451 23.0019 16.7426ZM25.0191 17.8023C25.0191 18.405 24.6205 18.8231 24.0615 18.8231C23.5852 18.8231 23.2255 18.5168 23.0796 18.1766V17.4231C23.2255 17.0877 23.5852 16.7815 24.0615 16.7815C24.6205 16.7815 25.0191 17.1995 25.0191 17.8023ZM26.1906 17.8023C26.1906 18.8668 27.0024 19.4258 27.8627 19.4258C28.728 19.4258 29.5349 18.8668 29.5349 17.8023C29.5349 16.7378 28.7328 16.1788 27.8627 16.1788C27.0024 16.1788 26.1906 16.7378 26.1906 17.8023ZM28.8349 17.8023C28.8349 18.405 28.4363 18.7988 27.8627 18.7988C27.2843 18.7988 26.8857 18.405 26.8857 17.8023C26.8857 17.1995 27.2843 16.8058 27.8627 16.8058C28.4363 16.8107 28.8349 17.1995 28.8349 17.8023ZM30.4973 20.1744V19.3432H32.9764V20.1744H33.6228V18.7793H33.1659V16.2614H30.7549C30.7695 17.3356 30.6383 18.1182 30.2689 18.7793H29.846V20.1744H30.4973ZM31.4014 16.8301H32.4757V18.7842H30.9931C31.2508 18.2349 31.3771 17.6565 31.4014 16.8301ZM34.945 19.348V18.1085H36.4859V19.348H37.1713V16.2663H36.4859V17.5058H34.945V16.2663H34.2596V19.348H34.945ZM37.8421 17.8023C37.8421 18.8668 38.6538 19.4258 39.5142 19.4258C40.3795 19.4258 41.1863 18.8668 41.1863 17.8023C41.1863 16.7378 40.3843 16.1788 39.5142 16.1788C38.649 16.1788 37.8421 16.7378 37.8421 17.8023ZM40.4815 17.8023C40.4815 18.405 40.0829 18.7988 39.5094 18.7988C38.9309 18.7988 38.5323 18.405 38.5323 17.8023C38.5323 17.1995 38.9309 16.8058 39.5094 16.8058C40.0829 16.8107 40.4815 17.1995 40.4815 17.8023ZM42.5377 19.348V16.869H44.1515V16.2663H41.8523V19.348H42.5377ZM44.4042 17.8023C44.4042 18.8668 45.216 19.4258 46.0764 19.4258C46.9416 19.4258 47.7485 18.8668 47.7485 17.8023C47.7485 16.7378 46.9465 16.1788 46.0764 16.1788C45.216 16.1788 44.4042 16.7378 44.4042 17.8023ZM47.0486 17.8023C47.0486 18.405 46.65 18.7988 46.0764 18.7988C45.4979 18.7988 45.0993 18.405 45.0993 17.8023C45.0993 17.1995 45.4979 16.8058 46.0764 16.8058C46.65 16.8107 47.0486 17.1995 47.0486 17.8023ZM2.7175 26.4109V23.9318H3.77717V23.3291H0.962723V23.9318H2.02725V26.4109H2.7175ZM6.12982 26.4109C6.84437 26.4109 7.14574 26.0366 7.14574 25.5651C7.14574 25.1859 6.90756 24.9429 6.62077 24.8505C6.88326 24.7339 7.05825 24.4908 7.05825 24.1506C7.05825 23.6693 6.70341 23.3291 6.08122 23.3291H4.32158V26.4109H6.12982ZM5.00211 25.1033H5.97428C6.21247 25.1033 6.45064 25.1859 6.45064 25.5019C6.45064 25.7984 6.24648 25.8956 5.96455 25.8956H5.00696V25.1033H5.00211ZM5.00211 23.8492H5.92081C6.13468 23.8492 6.35828 23.9415 6.35828 24.2429C6.35828 24.52 6.16385 24.6172 5.92081 24.6172H5.00211V23.8492ZM7.64641 24.87C7.64641 25.9345 8.45817 26.4935 9.31854 26.4935C10.1838 26.4935 10.9907 25.9345 10.9907 24.87C10.9907 23.8054 10.1886 23.2464 9.31854 23.2464C8.45331 23.2464 7.64641 23.8054 7.64641 24.87ZM10.2859 24.87C10.2859 25.4727 9.88727 25.8665 9.31369 25.8665C8.73525 25.8665 8.33665 25.4727 8.33665 24.87C8.33665 24.2672 8.73525 23.8735 9.31369 23.8735C9.88727 23.8735 10.2859 24.2672 10.2859 24.87ZM12.2642 23.8103V23.3291H11.6518V27.8254H12.3371V26.0123C12.551 26.2553 12.9107 26.4935 13.4503 26.4935C14.3738 26.4935 14.9815 25.7547 14.9815 24.87C14.9815 23.9853 14.3787 23.2464 13.4503 23.2464C12.8767 23.2464 12.5073 23.5138 12.2642 23.8103ZM14.2815 24.87C14.2815 25.4727 13.8829 25.8908 13.3239 25.8908C12.8475 25.8908 12.4878 25.5845 12.342 25.2443V24.4908C12.4878 24.1554 12.8475 23.8492 13.3239 23.8492C13.8829 23.8492 14.2815 24.2672 14.2815 24.87ZM18.2091 26.4109V23.3291H17.5237V24.8214C17.3195 24.8991 17.1202 24.938 16.8626 24.938C16.43 24.938 16.1578 24.8019 16.1578 24.3547V23.3339H15.4724V24.4131C15.4724 25.1908 15.9779 25.5456 16.6682 25.5456C17.0133 25.5456 17.2661 25.4922 17.5285 25.3998V26.4206H18.2091V26.4109ZM18.875 24.87C18.875 25.9539 19.677 26.4935 20.62 26.4935C21.0527 26.4935 21.4415 26.4157 21.7235 26.2796V25.6866C21.461 25.813 21.1207 25.9053 20.7464 25.9053C20.1826 25.9053 19.643 25.672 19.5652 25.1227H21.8839C22.0832 24.2283 21.6603 23.2416 20.4305 23.2416C19.7208 23.2464 18.875 23.752 18.875 24.87ZM21.2714 24.6123H19.5604C19.5847 24.0922 20.0027 23.8152 20.4645 23.8152C21.145 23.82 21.3103 24.345 21.2714 24.6123ZM22.3845 24.8991C22.3845 25.9977 23.2255 26.4984 24.047 26.4984C24.4407 26.4984 24.7712 26.4255 25.0677 26.2845V25.6477C24.8247 25.7887 24.4942 25.8859 24.1685 25.8859C23.6143 25.8859 23.0845 25.5699 23.0845 24.87C23.0845 24.1457 23.6386 23.8541 24.1831 23.8541C24.499 23.8541 24.815 23.9513 25.0386 24.1117V23.4798C24.7664 23.3194 24.4358 23.2416 24.0858 23.2416C23.2644 23.2464 22.3845 23.7471 22.3845 24.8991ZM27.1871 26.4109V23.9318H28.2467V23.3291H25.4323V23.9318H26.4968V26.4109H27.1871ZM30.5994 26.4109C31.3139 26.4109 31.6153 26.0366 31.6153 25.5651C31.6153 25.1859 31.3771 24.9429 31.0903 24.8505C31.3528 24.7339 31.5278 24.4908 31.5278 24.1506C31.5278 23.6693 31.173 23.3291 30.5508 23.3291H28.7911V26.4109H30.5994ZM29.4765 25.1033H30.4487C30.6869 25.1033 30.9251 25.1859 30.9251 25.5019C30.9251 25.7984 30.7209 25.8956 30.439 25.8956H29.4814V25.1033H29.4765ZM29.4765 23.8492H30.3952C30.6091 23.8492 30.8327 23.9415 30.8327 24.2429C30.8327 24.52 30.6383 24.6172 30.3952 24.6172H29.4765V23.8492ZM34.9353 25.7012V24.5978C34.9353 23.6645 34.3811 23.2464 33.5111 23.2464C33.0152 23.2464 32.5729 23.368 32.3299 23.4506V24.0825C32.6069 23.961 32.9861 23.8443 33.443 23.8443C33.968 23.8443 34.2548 24.1165 34.2548 24.5005V24.6075C34.0117 24.554 33.7152 24.5151 33.4527 24.5151C32.8111 24.5151 32.0771 24.7582 32.0771 25.5505C32.0771 26.1873 32.5972 26.4935 33.1562 26.4935C33.6374 26.4935 34.0166 26.338 34.318 26.0949C34.4249 26.3477 34.6534 26.4546 34.9353 26.4546C35.0908 26.4546 35.2415 26.4303 35.3728 26.3768V25.881C35.3096 25.9005 35.2367 25.9199 35.1686 25.9199C35.0374 25.9248 34.9353 25.8713 34.9353 25.7012ZM33.5791 25.0012C33.7978 25.0012 34.0603 25.0401 34.245 25.079V25.5991C34.002 25.8421 33.6812 25.9637 33.3506 25.9637C33.0444 25.9637 32.7722 25.8081 32.7722 25.5067C32.7771 25.1227 33.1902 25.0012 33.5791 25.0012Z"/>
</symbol><symbol viewBox="0 0 24 13" id="icon__version" xmlns="http://www.w3.org/2000/svg">
    <path d="M23.5877 5.97663C23.5392 5.91527 22.3764 4.45649 20.3827 2.99184C17.7187 1.03456 14.82 0 11.9999 0C9.17999 0 6.28126 1.03456 3.61711 2.99184C1.62354 4.45644 0.460671 5.91527 0.412176 5.97663L0 6.49793L0.412229 7.01929C0.460723 7.08065 1.62359 8.53948 3.61717 10.0041C6.28131 11.9614 9.18005 12.9959 12 12.9959C14.82 12.9959 17.7187 11.9614 20.3827 10.0041C22.3764 8.53948 23.5392 7.08065 23.5877 7.01929L24 6.49793L23.5877 5.97663ZM11.9999 11.0501C9.48988 11.0501 7.44775 9.00803 7.44775 6.49793C7.44775 6.10467 7.49788 5.72292 7.59208 5.35866L6.55279 5.18375C6.45096 5.60538 6.39695 6.04546 6.39695 6.49793C6.39695 8.11932 7.08953 9.58182 8.19403 10.6059C6.77224 10.0807 5.56325 9.34371 4.65079 8.67719C3.52034 7.85152 2.67313 7.01645 2.19013 6.49793C2.67334 5.97926 3.52044 5.14429 4.65079 4.31868C5.56325 3.65216 6.7723 2.91518 8.19403 2.38994L8.89124 3.17583C9.7055 2.41337 10.7991 1.94577 11.9999 1.94577C14.51 1.94577 16.552 3.98784 16.552 6.49793C16.552 9.00803 14.51 11.0501 11.9999 11.0501ZM19.3491 8.67719C18.4365 9.34371 17.2275 10.0807 15.8058 10.6059C16.9103 9.58187 17.6028 8.11937 17.6028 6.49788C17.6028 4.87639 16.9103 3.41394 15.8058 2.38989C17.2276 2.91513 18.4365 3.65211 19.3491 4.31863C20.4795 5.14429 21.3267 5.97936 21.8097 6.49783C21.3265 7.01661 20.4794 7.85163 19.3491 8.67719Z"/>
    <path d="M9.10328 5.61306C9.01785 5.89305 8.97156 6.19006 8.97156 6.49799C8.97156 8.17055 10.3275 9.52651 12.0001 9.52651C13.6726 9.52651 15.0285 8.1706 15.0285 6.49799C15.0285 4.82538 13.6726 3.46948 12.0001 3.46948C11.1854 3.46948 10.4464 3.79176 9.90204 4.31506L11.3959 5.99886L9.10328 5.61306Z"/>
</symbol><symbol viewBox="0 0 21 24" id="icon__youtube" xmlns="http://www.w3.org/2000/svg">
    <path d="M19.9089 12.1505C19.6609 11.073 18.7795 10.2781 17.7187 10.1598C15.2072 9.87927 12.6639 9.87795 10.1331 9.87927C7.60122 9.87795 5.05848 9.87927 2.54618 10.1598C1.48589 10.2784 0.605049 11.0732 0.357312 12.1505C0.00423479 13.6848 0 15.3596 0 16.9395C0 18.5193 3.15518e-08 20.1939 0.353077 21.7283C0.600814 22.8055 1.48165 23.6003 2.54247 23.7189C5.05425 23.9997 7.59699 24.0008 10.1286 23.9997C12.6605 24.001 15.2027 23.9997 17.7153 23.7189C18.7756 23.6003 19.6569 22.8055 19.9047 21.7283C20.2575 20.1939 20.2593 18.5193 20.2593 16.9395C20.2591 15.3594 20.2617 13.6848 19.9089 12.1505ZM5.77866 13.3396H4.31236V21.1312H2.95034V13.3396H1.51077V12.0634H5.77866V13.3396ZM9.47804 21.1314H8.25285V20.3943C7.76612 20.9522 7.30399 21.2243 6.85378 21.2243C6.45915 21.2243 6.18759 21.0645 6.06504 20.7222C5.99835 20.5179 5.95706 20.1945 5.95706 19.7175V14.3748H7.18118V19.3494C7.18118 19.6363 7.18118 19.7853 7.1923 19.8255C7.22168 20.0156 7.31458 20.1119 7.47868 20.1119C7.7243 20.1119 7.98103 19.9227 8.25259 19.5386V14.3748H9.47777L9.47804 21.1314ZM14.1292 19.1035C14.1292 19.7284 14.0871 20.1786 14.0053 20.465C13.8417 20.9676 13.5143 21.2243 13.0273 21.2243C12.5917 21.2243 12.1714 20.9824 11.7619 20.4769V21.1317H10.5378V12.0634H11.7619V15.0248C12.1573 14.5381 12.5771 14.2919 13.0273 14.2919C13.5143 14.2919 13.842 14.5484 14.0053 15.0542C14.0876 15.326 14.1292 15.7728 14.1292 16.4125V19.1035ZM18.7496 17.9762H16.3011V19.1739C16.3011 19.7993 16.5057 20.1116 16.9265 20.1116C17.228 20.1116 17.4035 19.9478 17.4734 19.6207C17.4847 19.5542 17.5009 19.2821 17.5009 18.7912H18.7499V18.9698C18.7499 19.3645 18.7348 19.6363 18.7237 19.7586C18.6827 20.0296 18.5863 20.2755 18.4378 20.492C18.0988 20.9827 17.5964 21.2246 16.957 21.2246C16.3165 21.2246 15.8289 20.9941 15.4751 20.5327C15.2154 20.1945 15.082 19.6619 15.082 18.9439V16.5774C15.082 15.8551 15.2003 15.3268 15.4605 14.9854C15.8141 14.523 16.3014 14.2927 16.9268 14.2927C17.5411 14.2927 18.0281 14.523 18.3711 14.9854C18.6276 15.3268 18.7502 15.8551 18.7502 16.5774V17.9762H18.7496Z"/>
    <path d="M16.9158 15.3943C16.5066 15.3943 16.3015 15.7069 16.3015 16.3316V16.9567H17.5256V16.3316C17.5254 15.7069 17.3208 15.3943 16.9158 15.3943Z"/>
    <path d="M12.3723 15.3943C12.1706 15.3943 11.9663 15.4896 11.7617 15.6921V19.8102C11.966 20.0151 12.1706 20.1119 12.3723 20.1119C12.7253 20.1119 12.9048 19.8102 12.9048 19.2001V16.3162C12.9048 15.7069 12.7253 15.3943 12.3723 15.3943Z"/>
    <path d="M13.0563 9.25654C13.5076 9.25654 13.9771 8.98233 14.4697 8.41804V9.16284H15.707V2.33447H14.4697V7.55335C14.1955 7.94083 13.9356 8.13246 13.6881 8.13246C13.5224 8.13246 13.425 8.03453 13.398 7.84264C13.3829 7.80214 13.3829 7.65154 13.3829 7.36172V2.33447H12.1495V7.73386C12.1495 8.2161 12.1908 8.54244 12.2591 8.74915C12.3835 9.09508 12.658 9.25654 13.0563 9.25654Z"/>
    <path d="M4.44232 5.45179V9.16281H5.8144V5.45179L7.46491 0H6.07748L5.14132 3.59827L4.16732 0H2.72351C3.0128 0.849344 3.31374 1.70292 3.60303 2.55306C4.04318 3.83092 4.31792 4.79434 4.44232 5.45179Z"/>
    <path d="M9.3038 9.25644C9.92367 9.25644 10.4054 9.02326 10.7471 8.55744C11.0067 8.21574 11.1311 7.67739 11.1311 6.95165V4.56057C11.1311 3.83059 11.007 3.297 10.7471 2.95213C10.4054 2.48498 9.92394 2.2518 9.3038 2.2518C8.68711 2.2518 8.20566 2.48498 7.86317 2.95213C7.60035 3.297 7.47595 3.83059 7.47595 4.56057V6.95165C7.47595 7.67739 7.60035 8.21574 7.86317 8.55744C8.2054 9.02326 8.68711 9.25644 9.3038 9.25644ZM8.71331 4.31257C8.71331 3.68078 8.90494 3.36582 9.3038 3.36582C9.70267 3.36582 9.89376 3.68052 9.89376 4.31257V7.18483C9.89376 7.81661 9.70267 8.13263 9.3038 8.13263C8.90494 8.13263 8.71331 7.81661 8.71331 7.18483V4.31257Z"/>
</symbol></svg>