<?xml version="1.0" encoding="utf-8"?><svg viewBox="0 0 2000 800" xmlns="http://www.w3.org/2000/svg" xmlns:xlink="http://www.w3.org/1999/xlink"><style>:root>svg{display:none}:root>svg:target{display:block}</style><svg fill="none" viewBox="0 0 10 6" id="icon__arrow" xmlns="http://www.w3.org/2000/svg">
    <path d="M.921 2.329A1.115 1.115 0 0 1 2.413.67l2.602 2.342C5.898 3.808 5.883 5.206 5 6L.921 2.329Z" fill="#002122"/>
    <path d="M7.587.671A1.115 1.115 0 0 1 9.08 2.33L5 6c-.883-.794-.898-2.192-.015-2.987L7.587.671Z" fill="#002122"/>
</svg><svg fill="none" viewBox="0 0 11 19" id="icon__arrow-slider" xmlns="http://www.w3.org/2000/svg">
    <path d="M9.193 0 0 9.192l1.414 1.415 9.193-9.193L9.193 0Z" fill="#000"/>
    <path d="M9.193 18.607 0 9.414 1.415 8l9.192 9.192-1.414 1.415Z" fill="#000"/>
</svg><svg fill="none" viewBox="0 0 16 16" id="icon__calendar" xmlns="http://www.w3.org/2000/svg">
    <g clip-path="url(#ca)" fill="#fff">
        <path d="M8.719 11.375c0 .69.56 1.25 1.25 1.25h1.469c.689 0 1.25-.56 1.25-1.25V9.906c0-.689-.561-1.25-1.25-1.25h-1.47c-.688 0-1.25.561-1.25 1.25v1.469Zm1.25-1.469h1.469v1.469h-1.47V9.906ZM12.063 7.188a.625.625 0 1 0 0-1.25.625.625 0 0 0 0 1.25ZM9.344 7.188a.625.625 0 1 0 0-1.25.625.625 0 0 0 0 1.25Z"/>
        <path d="M15.375 11c.345 0 .625-.28.625-.625V3.75c0-1.378-1.121-2.5-2.5-2.5h-.813V.625a.625.625 0 1 0-1.25 0v.625H8.595V.625a.625.625 0 1 0-1.25 0v.625H4.53V.625a.625.625 0 1 0-1.25 0v.625H2.5A2.503 2.503 0 0 0 0 3.75v9.75C0 14.879 1.121 16 2.5 16h11c1.379 0 2.5-1.121 2.5-2.5a.625.625 0 1 0-1.25 0c0 .69-.56 1.25-1.25 1.25h-11c-.69 0-1.25-.56-1.25-1.25V3.75c0-.69.56-1.25 1.25-1.25h.781v.625a.625.625 0 1 0 1.25 0V2.5h2.813v.625a.625.625 0 1 0 1.25 0V2.5h2.844v.625a.625.625 0 1 0 1.25 0V2.5h.812c.69 0 1.25.56 1.25 1.25v6.625c0 .345.28.625.625.625Z"/>
        <path d="M3.906 12.625a.625.625 0 1 0 0-1.25.625.625 0 0 0 0 1.25ZM3.906 7.188a.625.625 0 1 0 0-1.25.625.625 0 0 0 0 1.25ZM3.906 9.906a.625.625 0 1 0 0-1.25.625.625 0 0 0 0 1.25ZM6.625 9.906a.625.625 0 1 0 0-1.25.625.625 0 0 0 0 1.25ZM6.625 7.188a.625.625 0 1 0 0-1.25.625.625 0 0 0 0 1.25ZM6.625 12.625a.625.625 0 1 0 0-1.25.625.625 0 0 0 0 1.25Z"/>
    </g>
    <defs>
        <clipPath id="ca">
            <path fill="#fff" d="M0 0h16v16H0z"/>
        </clipPath>
    </defs>
</svg><svg viewBox="0 0 24 24" fill="none" id="icon__cursor" xmlns="http://www.w3.org/2000/svg">
    <g clip-path="url(#da)">
        <path d="M16.266 24a2.844 2.844 0 0 1-2.554-1.584l-1.414-2.647-.802 1.53a.932.932 0 0 1-.07.114c-.526.73-1.391.99-2.032.99h-.016a2.815 2.815 0 0 1-1.957-.844 2.91 2.91 0 0 1-.85-2.063V7.358c0-1.108.624-2.085 1.629-2.551a2.785 2.785 0 0 1 2.975.382l6.175 4.599a.937.937 0 0 1-1.12 1.503l-6.196-4.614a.892.892 0 0 1-.045-.036.925.925 0 0 0-1-.134.925.925 0 0 0-.542.85v12.14c0 .603.497 1.028.943 1.03h.005c.182 0 .383-.075.483-.178l1.582-3.02a.938.938 0 0 1 .827-.503h.004c.345 0 .663.191.826.496l2.258 4.226a.96.96 0 0 0 1.282.49.95.95 0 0 0 .5-.546.949.949 0 0 0-.03-.717l-2.279-4.054a.937.937 0 0 1 .818-1.397h3.214c.544-.027.76-.456.815-.587.055-.135.205-.608-.183-1.02a.938.938 0 0 1 1.364-1.286 2.8 2.8 0 0 1 .554 3.016A2.784 2.784 0 0 1 18.9 17.2h-1.632l1.509 2.686a2.81 2.81 0 0 1 .145 2.238 2.81 2.81 0 0 1-1.478 1.618c-.38.176-.782.259-1.178.259ZM7.632 3.682a.937.937 0 0 0 .371-1.273L7.206.956a.937.937 0 1 0-1.644.901l.797 1.453a.937.937 0 0 0 1.273.372ZM5.649 5.814a.938.938 0 0 0-.483-1.235l-1.5-.656a.938.938 0 0 0-.752 1.718l1.5.656a.934.934 0 0 0 1.235-.483Zm5.843-3.033.516-1.547a.937.937 0 1 0-1.779-.593l-.516 1.547a.937.937 0 1 0 1.78.593Zm2.481 2.379 1.266-.938a.937.937 0 0 0-1.116-1.506l-1.266.937a.938.938 0 0 0 1.116 1.507Zm-10.24 5.273 1.405-.562a.937.937 0 1 0-.696-1.741l-1.406.562a.937.937 0 0 0 .696 1.741Z" fill="#fff"/>
    </g>
    <defs>
        <clipPath id="da">
            <path fill="#fff" d="M0 0h24v24H0z"/>
        </clipPath>
    </defs>
</svg><svg viewBox="0 -960 960 960" fill="#5f6368" id="icon__delete" xmlns="http://www.w3.org/2000/svg">
    <path d="m256-200-56-56 224-224-224-224 56-56 224 224 224-224 56 56-224 224 224 224-56 56-224-224-224 224Z"/>
</svg><svg fill="none" viewBox="0 0 16 16" id="icon__phone" xmlns="http://www.w3.org/2000/svg">
    <g clip-path="url(#fa)">
        <path d="M1.734.717a2.43 2.43 0 0 0-.138.175C.84 1.895-.064 3.437.004 4.925c.115 2.491 3.477 5.803 4.505 6.759 1.029.955 4.577 4.067 7.068 4a4.2 4.2 0 0 0 1.308-.26c1.044-.374 1.986-1.086 2.585-1.61 0 0 .129-.11.178-.163.126-.135.225-.332.303-.603a1.42 1.42 0 0 0 .049-.381c0-.109-.01-.32-.082-.511-.098-.262-.21-.45-.345-.576-.099-.092-2.345-1.852-2.36-1.862l-.016-.01a1.506 1.506 0 0 0-1.434-.233 1.43 1.43 0 0 0-.565.37l-.772.826a.747.747 0 0 1-.255.17.683.683 0 0 1-.107.012l-5.18-4.814a.093.093 0 0 1-.022-.032l.007-.018a1.79 1.79 0 0 1 .22-.283l.764-.826c.404-.435.504-1.11.247-1.638-.091-.188-.217-.328-.275-.394l-.03-.038A278.98 278.98 0 0 0 3.805.64C3.593.445 3.262.34 2.791.317c-.261-.013-.59.064-.78.183a1.382 1.382 0 0 0-.278.217Zm1.426.598c.106.107 1.827 1.992 1.917 2.091l.064.077a.815.815 0 0 1 .122.169.545.545 0 0 1-.094.595l-.764.828c-.09.097-.307.344-.394.55a.986.986 0 0 0-.084.395c.01.266.122.513.32.7l5.232 4.862c.2.185.489.244.861.175.288-.053.6-.27.767-.45l.773-.827c.052-.056.12-.1.197-.128a.58.58 0 0 1 .402.006.636.636 0 0 1 .155.093c.02.015.035.025.05.034.215.167 2.146 1.685 2.25 1.773 0 0 .047.052.11.224a.639.639 0 0 1 .024.185.48.48 0 0 1-.012.121c-.048.166-.088.225-.088.226-.03.03-.093.082-.104.091-.546.478-1.387 1.117-2.294 1.441-.358.129-.7.198-1.017.206-1.701.046-4.516-1.992-6.41-3.751C3.252 9.242 1.014 6.584.936 4.88c-.058-1.226.74-2.546 1.397-3.418l.025-.034c.015-.02.041-.057.055-.073.023-.022.058-.043.086-.06a.674.674 0 0 1 .25-.048c.275.014.402.063.412.067Z" fill="#002122"/>
    </g>
    <defs>
        <clipPath id="fa">
            <path fill="#fff" transform="rotate(-90 8 8)" d="M0 0h16v16H0z"/>
        </clipPath>
    </defs>
</svg><svg fill="none" viewBox="0 0 13 16" id="icon__place" xmlns="http://www.w3.org/2000/svg">
    <path d="M11.783 2.782A6.37 6.37 0 0 0 6.473 0a6.37 6.37 0 0 0-5.311 2.782C-.054 4.54-.334 6.768.409 8.735c.2.537.516 1.06.938 1.548l4.7 5.52a.56.56 0 0 0 .851 0l4.698-5.518c.425-.492.74-1.014.938-1.547a6.462 6.462 0 0 0-.75-5.956Zm-.297 5.565a3.99 3.99 0 0 1-.738 1.208l-.002.003-4.273 5.02-4.276-5.023a3.993 3.993 0 0 1-.74-1.212 5.345 5.345 0 0 1 .625-4.925 5.266 5.266 0 0 1 4.39-2.3c1.781 0 3.381.839 4.39 2.3a5.346 5.346 0 0 1 .624 4.929Z" fill="#002122"/>
    <path d="M6.472 3.32A3.136 3.136 0 0 0 3.34 6.451a3.136 3.136 0 0 0 3.133 3.133 3.136 3.136 0 0 0 3.133-3.133A3.137 3.137 0 0 0 6.472 3.32Zm0 5.146a2.016 2.016 0 0 1-2.014-2.014c0-1.11.904-2.014 2.014-2.014 1.11 0 2.014.904 2.014 2.014 0 1.11-.903 2.014-2.014 2.014Z" fill="#002122"/>
</svg><svg fill="none" viewBox="-0.141 0.5 842.68 145.89" id="icon__rutube" xmlns="http://www.w3.org/2000/svg">
    <path d="M92.885 42.977H-.141V146.39h25.892v-33.644h49.614L98 146.39h28.993l-24.962-33.799c7.752-1.241 13.334-4.187 16.745-8.838s5.116-12.093 5.116-22.016v-7.752c0-5.892-.62-10.543-1.705-14.109-1.086-3.566-2.946-6.667-5.582-9.457-2.791-2.636-5.891-4.497-9.612-5.737-3.721-1.085-8.373-1.705-14.11-1.705zm-4.186 46.977H25.75V65.768H88.7c3.566 0 6.046.62 7.287 1.705C97.225 68.558 98 70.574 98 73.52v8.682c0 3.101-.775 5.117-2.015 6.202s-3.722 1.55-7.287 1.55zm73.286 25.892v-72.87h-25.892v72.25c0 5.892.465 10.698 1.55 14.264 1.085 3.721 2.946 6.822 5.737 9.458 2.635 2.79 5.736 4.651 9.457 5.736 3.721 1.241 8.373 1.706 14.264 1.706h62.017c5.737 0 10.388-.465 14.109-1.706 3.721-1.085 6.822-2.946 9.613-5.736 2.635-2.636 4.496-5.737 5.581-9.458 1.085-3.566 1.706-8.372 1.706-14.264v-72.25h-25.893v72.87c0 3.101-.775 5.117-2.015 6.202s-3.721 1.551-7.287 1.551h-53.645c-3.721 0-6.201-.466-7.442-1.551-1.24-1.085-1.86-3.101-1.86-6.202zm185.728 30.544V65.768h50.079V42.977h-126.05v22.79h50.079v80.623zm87.578-30.544v-72.87h-25.892v72.25c0 5.892.465 10.698 1.551 14.264 1.085 3.721 2.945 6.822 5.736 9.458 2.636 2.79 5.737 4.651 9.458 5.736 3.721 1.241 8.372 1.706 14.264 1.706h62.017c5.736 0 10.387-.465 14.108-1.706 3.721-1.085 6.822-2.946 9.613-5.736 2.636-2.636 4.496-5.737 5.582-9.458 1.085-3.566 1.705-8.372 1.705-14.264v-72.25h-25.892v72.87c0 3.101-.775 5.117-2.016 6.202-1.24 1.085-3.721 1.551-7.287 1.551h-53.644c-3.721 0-6.202-.466-7.442-1.551-1.241-1.085-1.861-3.101-1.861-6.202zm229.358-42.791v-2.016c0-9.612-2.48-16.744-7.442-21.24-4.961-4.497-12.868-6.822-23.411-6.822h-87.909V146.39h93.025c10.543 0 18.45-2.171 23.412-6.667 4.961-4.496 7.442-11.628 7.442-21.241v-2.17c0-9.613-2.481-16.435-7.442-20.466-.931-.62-1.861-1.085-2.791-1.55a39.433 39.433 0 0 0-4.031-1.706c3.411-1.86 5.736-4.341 7.132-7.132 1.24-2.79 2.015-6.977 2.015-12.403zm-92.87 11.318V65.768h57.831c3.721 0 6.201.62 7.442 1.705 1.24 1.085 1.86 3.101 1.86 6.047v3.1c0 3.102-.62 5.117-1.86 6.202-1.241 1.086-3.721 1.55-7.442 1.55zm0 39.226v-18.606h63.102c3.566 0 6.047.621 7.287 1.706 1.241 1.085 2.016 3.101 2.016 6.047v3.1c0 3.101-.775 5.117-2.016 6.202-1.24 1.085-3.721 1.551-7.287 1.551zm133.106-57.831h84.653V42.977H678.993V146.39h114.731v-22.791h-88.839v-17.52h82.638l2.015-22.791h-84.653z" fill="#1c293e"/>
    <circle cx="824.422" cy="18.617" fill="#f41240" r="18.117"/>
</svg><svg viewBox="0 0 192 192" xml:space="preserve" fill="none" id="icon__rutube-new" xmlns="http://www.w3.org/2000/svg">
    <path fill="#fff" d="M128.689 47.57H20.396v116.843h30.141V126.4h57.756l26.352 38.013h33.75l-29.058-38.188c9.025-1.401 15.522-4.73 19.493-9.985 3.97-5.255 5.956-13.664 5.956-24.875v-8.759c0-6.657-.721-11.912-1.985-15.941-1.264-4.029-3.43-7.533-6.498-10.686-3.249-2.978-6.858-5.08-11.19-6.481-4.332-1.226-9.747-1.927-16.424-1.927zm-4.873 53.08H50.537V73.321h73.279c4.15 0 7.038.7 8.482 1.927 1.444 1.226 2.347 3.503 2.347 6.832v9.81c0 3.503-.903 5.78-2.347 7.006s-4.331 1.752-8.482 1.752z" style="display:inline;fill:none;stroke:#000;stroke-width:12;stroke-linecap:round;stroke-linejoin:round;stroke-dasharray:none;stroke-opacity:1" transform="translate(1.605 -1.99)"/>
    <path fill="#F41240" d="M162.324 45.568c5.52 0 9.998-4.477 9.998-10s-4.478-10-9.998-10c-5.524 0-10.002 4.477-10.002 10s4.478 10 10.002 10z" style="display:inline;fill:#000;fill-opacity:1;stroke:none;stroke-width:10.6667;stroke-linecap:round;stroke-linejoin:round;stroke-dasharray:none;stroke-opacity:1" transform="translate(1.605 -1.99)"/>
</svg><svg fill="none" viewBox="0 0 18 18" id="icon__search" xmlns="http://www.w3.org/2000/svg">
    <path d="M13.308 13.308 17 17m-1.23-8.615a7.385 7.385 0 1 1-14.77 0 7.385 7.385 0 0 1 14.77 0Z" stroke="#000"/>
</svg><svg viewBox="0 -960 960 960" fill="#5f6368" id="icon__search--modal" xmlns="http://www.w3.org/2000/svg">
    <path d="M784-120 532-372q-30 24-69 38t-83 14q-109 0-184.5-75.5T120-580q0-109 75.5-184.5T380-840q109 0 184.5 75.5T640-580q0 44-14 83t-38 69l252 252-56 56ZM380-400q75 0 127.5-52.5T560-580q0-75-52.5-127.5T380-760q-75 0-127.5 52.5T200-580q0 75 52.5 127.5T380-400Z"/>
</svg><svg viewBox="0 0 106 24" fill="none" id="icon__sign--big" xmlns="http://www.w3.org/2000/svg">
    <path d="M9.063 19.794c2.353 0 4.317-.772 5.897-2.313h.116l.773 1.852h3.738V.827H15.85l-.773 1.852h-.116C13.38 1.14 11.41.366 9.063.366c-2.62 0-4.778.884-6.435 2.697C.97 4.876.158 7.19.158 10.078c0 5.711 3.66 9.716 8.905 9.716Zm.924-5.473c-2.314 0-3.855-1.735-3.855-4.239 0-2.469 1.541-4.238 3.855-4.238 2.275 0 3.777 1.852 3.777 4.01v.462c0 2.158-1.502 4.005-3.777 4.005Zm22.783 5.473c2.853 0 5.206-.923 7.014-2.814 1.813-1.89 2.737-4.166 2.737-6.902 0-2.737-.924-5.012-2.737-6.903-1.813-1.89-4.166-2.814-7.053-2.814-2.853 0-5.206.923-7.014 2.814-1.813 1.891-2.737 4.166-2.737 6.903-.117 5.283 4.083 9.794 9.79 9.716Zm0-5.59c-2.197 0-3.816-1.774-3.816-4.126 0-2.353 1.619-4.127 3.816-4.127s3.816 1.774 3.816 4.127c0 2.357-1.62 4.126-3.816 4.126ZM63.763 1.022H47.955v4.705c0 2.392-.039 4.166-.155 5.357a12.367 12.367 0 0 1-.812 3.393h-3.082v9.211h4.856v-4.355h11.68v4.355H65.3v-9.211h-1.541V1.022h.005ZM58.1 5.917v8.56h-5.396c.462-1.502.734-3.549.773-5.129.039-.811.039-1.93.039-3.431H58.1Zm22.433 1.735h-5.435V.827h-6.013v18.506h6.013v-6.825h5.435v6.825h6.051V.827h-6.051v6.825ZM89.554.827v5.09h5.129v13.416h6.051V5.917h5.167V.827H89.554Z" fill="#fff"/>
</svg><svg fill="none" viewBox="0 0 48 28" id="icon__title" xmlns="http://www.w3.org/2000/svg">
    <path d="M3.913 4.498V3.395c0-.934-.554-1.352-1.424-1.352a3.79 3.79 0 0 0-1.181.205v.631a2.763 2.763 0 0 1 1.113-.238c.525 0 .812.272.812.656v.107a3.936 3.936 0 0 0-.802-.092c-.642 0-1.376.243-1.376 1.035 0 .637.52.943 1.08.943.48 0 .86-.155 1.16-.398.108.253.336.36.618.36.156 0 .307-.025.438-.078v-.496a.723.723 0 0 1-.204.039c-.132.005-.234-.044-.234-.219Zm-1.356-.7c.219 0 .481.039.666.078v.52a1.253 1.253 0 0 1-.894.365c-.307 0-.579-.156-.579-.457.005-.384.413-.506.807-.506Zm2.97 1.415v-2.09l.875 1.35h.413l.88-1.35v2.09h.661V2.13h-.695L6.606 3.754 5.561 2.131h-.695v3.082h.661Zm5.075-.759-1.04-2.323h-.734l1.463 3.11-.064.156c-.18.482-.432.72-.763.72-.102 0-.213-.015-.316-.044v.583c.137.034.273.054.404.054.466 0 .904-.272 1.24-1.074l1.443-3.5h-.72l-.913 2.318Zm2.76-1.842v-.481h-.612v4.496h.686V4.814c.214.243.573.481 1.113.481.923 0 1.531-.739 1.531-1.623 0-.885-.603-1.624-1.531-1.624a1.454 1.454 0 0 0-1.186.564Zm2.018 1.06c0 .603-.399 1.02-.958 1.02-.476 0-.836-.306-.981-.646v-.753c.145-.336.505-.642.981-.642.56-.005.958.413.958 1.02Zm1.176.024c0 1.099.841 1.6 1.663 1.6.393 0 .724-.074 1.02-.215v-.636a1.86 1.86 0 0 1-.899.238c-.554 0-1.084-.316-1.084-1.016 0-.724.555-1.016 1.099-1.016.316 0 .632.097.855.258v-.632a1.874 1.874 0 0 0-.952-.238c-.822.004-1.702.505-1.702 1.657Zm4.06 1.517V3.934h.495l1.016 1.279h.792l-1.24-1.556 1.119-1.531h-.783l-.885 1.22h-.505v-1.22h-.686v3.082h.676v.005Zm3.339 0 1.652-2.018v2.018h.686V2.13H25.7l-1.653 2.017V2.131h-.685v3.082h.593Zm5.604-3.777v-.56a1.667 1.667 0 0 1-.938.273c-.32 0-.612-.063-.938-.272v.559c.282.194.593.262.938.262s.656-.073.938-.262Zm-1.813 3.777L29.4 3.195v2.018h.685V2.13h-.593l-1.653 2.017V2.131h-.68v3.082h.588ZM1.094 10.739c0 1.065.812 1.624 1.672 1.624.865 0 1.672-.559 1.672-1.623 0-1.065-.802-1.624-1.672-1.624-.865-.005-1.672.554-1.672 1.623Zm2.64 0c0 .603-.4.997-.973.997-.578 0-.977-.394-.977-.997 0-.602.399-.996.977-.996.574 0 .972.389.972.996Zm4.452.107c0-.933-.666-1.497-1.444-1.497-.476 0-.875.234-1.079.54.093-.355.263-.754.656-.977.657-.365 1.162-.219 1.595-.545v-.666c-.438.433-1.113.195-1.998.74-.554.344-.953 1.025-.953 2.094 0 1.24.7 1.833 1.619 1.833.928-.005 1.604-.545 1.604-1.522Zm-2.533.015c0-.433.321-.914.914-.914.618 0 .919.438.919.914 0 .476-.301.914-.919.914-.598-.005-.914-.443-.914-.914Zm4.38-1.08h1.04v2.5h.686V9.198H9.382c-.059 1.53-.2 2.556-.72 2.556a.628.628 0 0 1-.199-.039v.54a1.2 1.2 0 0 0 .423.083c.826 0 1.06-1.07 1.147-2.557Zm5.22 1.785v-1.104c0-.933-.553-1.35-1.424-1.35a3.79 3.79 0 0 0-1.18.203v.632a2.764 2.764 0 0 1 1.112-.238c.525 0 .812.267.812.656v.107a3.933 3.933 0 0 0-.802-.092c-.642 0-1.376.243-1.376 1.035 0 .637.52.943 1.08.943.48 0 .86-.155 1.161-.399.107.253.336.36.618.36.155 0 .306-.024.437-.078v-.495a.725.725 0 0 1-.204.038c-.131.005-.233-.043-.233-.218Zm-1.355-.7c.218 0 .48.039.665.078v.52a1.253 1.253 0 0 1-.894.364c-.306 0-.578-.155-.578-.457.004-.384.413-.505.807-.505Zm2.114-.102c0 1.098.84 1.599 1.662 1.599a2.32 2.32 0 0 0 1.021-.214v-.637a1.859 1.859 0 0 1-.9.239c-.553 0-1.083-.316-1.083-1.016 0-.725.554-1.016 1.099-1.016.315 0 .631.097.855.257v-.632a1.874 1.874 0 0 0-.953-.238c-.821.005-1.701.506-1.701 1.658Zm4.802 1.516V9.801h1.06V9.2H19.06V9.8h1.064v2.48h.69Zm2.29 0v-1.24h1.54v1.24h.686V9.2h-.685v1.24h-1.541v-1.24h-.685v3.081h.685Zm2.897-1.54c0 1.064.812 1.623 1.672 1.623.865 0 1.672-.559 1.672-1.623 0-1.065-.802-1.624-1.672-1.624-.865-.005-1.672.554-1.672 1.623Zm2.64 0c0 .602-.4.996-.973.996-.578 0-.977-.394-.977-.997 0-.602.399-.996.977-.996.574 0 .973.389.973.996Zm3.772-2.237v-.559a1.666 1.666 0 0 1-.939.273 1.63 1.63 0 0 1-.938-.273v.56c.282.194.593.262.938.262.346 0 .657-.073.939-.263Zm-1.814 3.777 1.653-2.017v2.017h.685V9.2h-.593l-1.652 2.017V9.199h-.686v3.081h.593ZM1.658 20.174v-.83h2.479v.83h.646V18.78h-.457v-2.518h-2.41c.014 1.075-.117 1.857-.487 2.518h-.423v1.395h.652Zm.904-3.344h1.074v1.954H2.154c.257-.55.384-1.127.408-1.954Zm2.596.972c0 1.065.811 1.624 1.672 1.624.865 0 1.672-.56 1.672-1.624S7.7 16.18 6.83 16.18c-.86 0-1.672.559-1.672 1.623Zm2.64 0c0 .603-.4.997-.973.997-.579 0-.977-.394-.977-.997 0-.602.398-.996.977-.996.574.005.972.393.972.996Zm2.03 1.546v-2.09l.876 1.351h.413l.88-1.351v2.09h.661v-3.082h-.695l-1.055 1.624-1.045-1.624h-.695v3.082h.66Zm5.892 0v-1.24h1.541v1.24h.686v-3.082h-.686v1.24h-1.54v-1.24h-.686v3.082h.685Zm5.717-.714V17.53c0-.933-.555-1.351-1.425-1.351a3.79 3.79 0 0 0-1.18.204v.632a2.763 2.763 0 0 1 1.112-.238c.525 0 .812.272.812.656v.107a3.933 3.933 0 0 0-.802-.093c-.642 0-1.376.244-1.376 1.036 0 .637.52.943 1.08.943.48 0 .86-.156 1.161-.399.107.253.336.36.618.36.155 0 .306-.024.437-.078v-.496a.722.722 0 0 1-.204.04c-.126.004-.233-.045-.233-.22Zm-1.352-.7c.22 0 .482.038.666.077v.52a1.253 1.253 0 0 1-.894.365c-.306 0-.578-.156-.578-.457 0-.384.413-.506.806-.506Zm2.917-1.191v-.482h-.613v4.497h.686v-1.813c.214.243.573.48 1.113.48.924 0 1.531-.738 1.531-1.623 0-.884-.603-1.623-1.531-1.623-.578 0-.943.272-1.186.564Zm2.017 1.06c0 .602-.398 1.02-.957 1.02-.477 0-.837-.306-.982-.646v-.754c.146-.335.505-.641.982-.641.558 0 .957.418.957 1.02Zm1.172 0c0 1.064.811 1.623 1.672 1.623.865 0 1.672-.56 1.672-1.624s-.802-1.623-1.672-1.623c-.86 0-1.672.559-1.672 1.623Zm2.644 0c0 .602-.399.996-.972.996-.579 0-.977-.394-.977-.997 0-.602.398-.996.977-.996.573.005.972.393.972.996Zm1.662 2.371v-.83h2.48v.83h.646V18.78h-.457v-2.518h-2.411c.015 1.075-.117 1.857-.486 2.518h-.423v1.395h.651Zm.904-3.344h1.075v1.954h-1.483c.258-.55.384-1.127.408-1.954Zm3.544 2.518v-1.24h1.54v1.24h.686v-3.082h-.685v1.24h-1.541v-1.24h-.685v3.082h.685Zm2.897-1.546c0 1.065.812 1.624 1.672 1.624.865 0 1.672-.56 1.672-1.624s-.802-1.623-1.672-1.623c-.865 0-1.672.559-1.672 1.623Zm2.64 0c0 .603-.4.997-.973.997-.578 0-.977-.394-.977-.997 0-.602.399-.996.977-.996.574.005.972.393.972.996Zm2.056 1.546v-2.479h1.614v-.603h-2.3v3.082h.686Zm1.866-1.546c0 1.065.812 1.624 1.672 1.624.866 0 1.672-.56 1.672-1.624s-.801-1.623-1.672-1.623c-.86 0-1.672.559-1.672 1.623Zm2.645 0c0 .603-.399.997-.973.997-.578 0-.977-.394-.977-.997 0-.602.399-.996.977-.996.574.005.973.393.973.996ZM2.718 26.411v-2.48h1.06v-.602H.962v.603h1.064v2.479h.69Zm3.412 0c.714 0 1.016-.374 1.016-.846a.727.727 0 0 0-.525-.715c.262-.116.437-.36.437-.7 0-.48-.355-.82-.977-.82h-1.76v3.08H6.13Zm-1.128-1.308h.972c.238 0 .477.083.477.399 0 .296-.205.394-.486.394h-.958v-.793h-.005Zm0-1.254h.919c.214 0 .437.093.437.394 0 .277-.194.374-.437.374h-.919v-.768Zm2.644 1.021c0 1.064.812 1.623 1.673 1.623.865 0 1.672-.558 1.672-1.623s-.802-1.624-1.672-1.624c-.866 0-1.673.56-1.673 1.624Zm2.64 0c0 .603-.399.996-.972.996-.579 0-.977-.393-.977-.996s.398-.997.977-.997c.573 0 .972.394.972.997Zm1.978-1.06v-.48h-.612v4.495h.685v-1.813c.214.243.574.482 1.113.482.924 0 1.532-.74 1.532-1.624 0-.885-.603-1.624-1.532-1.624-.573 0-.943.268-1.186.564Zm2.018 1.06c0 .603-.4 1.02-.958 1.02-.476 0-.836-.306-.982-.646v-.753c.146-.336.505-.642.982-.642.559 0 .957.418.957 1.021Zm3.927 1.54v-3.08h-.685v1.491a1.764 1.764 0 0 1-.661.117c-.433 0-.705-.136-.705-.583v-1.021h-.686v1.08c0 .777.506 1.132 1.196 1.132.345 0 .598-.054.86-.146v1.02h.681v-.01Zm.666-1.54c0 1.084.802 1.623 1.745 1.623.433 0 .822-.077 1.104-.213v-.593a2.281 2.281 0 0 1-.978.218c-.563 0-1.103-.233-1.18-.782h2.318c.2-.895-.224-1.881-1.454-1.881-.71.004-1.555.51-1.555 1.628Zm2.396-.258h-1.71c.024-.52.442-.797.904-.797.68.005.845.53.806.797Zm1.113.287c0 1.099.841 1.6 1.663 1.6a2.32 2.32 0 0 0 1.02-.214v-.637a1.859 1.859 0 0 1-.898.238c-.555 0-1.085-.316-1.085-1.016 0-.724.555-1.016 1.1-1.016.315 0 .631.097.855.258v-.632a1.874 1.874 0 0 0-.953-.238c-.822.004-1.701.505-1.701 1.657Zm4.803 1.512v-2.48h1.06v-.602h-2.815v.603h1.065v2.479h.69Zm3.412 0c.715 0 1.016-.374 1.016-.846a.727.727 0 0 0-.525-.715c.263-.116.438-.36.438-.7 0-.48-.355-.82-.977-.82h-1.76v3.08H30.6Zm-1.122-1.308h.972c.238 0 .476.083.476.399 0 .296-.204.394-.486.394h-.958v-.793h-.005Zm0-1.254h.918c.214 0 .438.093.438.394 0 .277-.195.374-.438.374h-.918v-.768Zm5.458 1.852v-1.103c0-.933-.554-1.352-1.424-1.352a3.79 3.79 0 0 0-1.181.205v.631a2.763 2.763 0 0 1 1.113-.238c.525 0 .812.272.812.656v.108a3.934 3.934 0 0 0-.802-.093c-.642 0-1.376.243-1.376 1.035 0 .637.52.944 1.08.944.48 0 .86-.156 1.161-.4.107.254.335.36.617.36.156 0 .306-.024.438-.077v-.496a.721.721 0 0 1-.204.039c-.132.005-.234-.049-.234-.219Zm-1.356-.7c.219 0 .481.04.666.078v.52a1.253 1.253 0 0 1-.894.365c-.307 0-.579-.156-.579-.457.005-.384.418-.506.807-.506Z" fill="#fff"/>
</svg><svg fill="none" viewBox="0 0 24 13" id="icon__version" xmlns="http://www.w3.org/2000/svg">
    <path d="M23.588 5.977c-.049-.062-1.212-1.52-3.205-2.985C17.719 1.035 14.82 0 12 0 9.18 0 6.28 1.035 3.617 2.992 1.624 4.456.461 5.915.412 5.977L0 6.497l.412.522c.049.062 1.212 1.52 3.205 2.985C6.281 11.961 9.18 12.996 12 12.996c2.82 0 5.719-1.035 8.383-2.992 1.993-1.465 3.156-2.923 3.205-2.985L24 6.498l-.412-.521ZM12 11.05A4.557 4.557 0 0 1 7.592 5.36l-1.04-.175a5.589 5.589 0 0 0 1.641 5.422c-1.42-.525-2.63-1.262-3.542-1.929a17.661 17.661 0 0 1-2.46-2.18A17.666 17.666 0 0 1 4.65 4.32c.912-.667 2.121-1.404 3.543-1.93l.697.787A4.535 4.535 0 0 1 12 1.946a4.557 4.557 0 0 1 4.552 4.552A4.557 4.557 0 0 1 12 11.05Zm7.35-2.373c-.914.667-2.123 1.404-3.544 1.929a5.589 5.589 0 0 0 1.797-4.108 5.589 5.589 0 0 0-1.797-4.108c1.422.525 2.63 1.262 3.543 1.929 1.13.825 1.978 1.66 2.46 2.179a17.656 17.656 0 0 1-2.46 2.18Z" fill="#000"/>
    <path d="M9.103 5.613a3.029 3.029 0 1 0 .799-1.298L11.396 6l-2.293-.386Z" fill="#000"/>
</svg><svg fill="none" viewBox="0 0 25 14" id="icon__vk" xmlns="http://www.w3.org/2000/svg">
    <path d="M24.045 12.367c-.064-.108-.463-.975-2.383-2.757-2.01-1.866-1.74-1.563.68-4.79 1.475-1.965 2.065-3.165 1.88-3.678-.175-.49-1.26-.36-1.26-.36l-3.606.02s-.267-.035-.466.083c-.194.117-.319.387-.319.387S18 2.793 17.238 4.086c-1.607 2.73-2.25 2.873-2.513 2.704-.61-.395-.457-1.587-.457-2.434 0-2.644.4-3.747-.782-4.032-.393-.094-.681-.157-1.684-.168-1.288-.013-2.378.005-2.995.306-.41.201-.727.65-.534.675.239.032.779.146 1.065.536.37.502.357 1.633.357 1.633s.213 3.113-.496 3.5c-.488.266-1.155-.276-2.588-2.753a23.087 23.087 0 0 1-1.289-2.67s-.106-.26-.297-.4C4.795.813 4.47.759 4.47.759L1.041.78S.527.795.338 1.02c-.168.2-.014.61-.014.61S3.01 7.91 6.05 11.077c2.788 2.903 5.953 2.712 5.953 2.712h1.435s.433-.048.654-.286c.204-.22.196-.63.196-.63s-.028-1.925.866-2.208c.88-.28 2.011 1.86 3.21 2.683.906.623 1.595.486 1.595.486l3.205-.045s1.677-.103.882-1.422Z" fill="#4D75A3"/>
</svg><svg fill="none" viewBox="0 0 21 24" id="icon__youtube" xmlns="http://www.w3.org/2000/svg">
    <path d="M19.909 12.15c-.248-1.077-1.13-1.872-2.19-1.99-2.512-.28-5.055-.282-7.586-.28-2.532-.002-5.075 0-7.587.28-1.06.118-1.941.913-2.189 1.99C.004 13.685 0 15.36 0 16.94s0 3.254.353 4.788c.248 1.077 1.129 1.872 2.19 1.99 2.511.282 5.054.283 7.586.282 2.532.001 5.074 0 7.586-.281 1.06-.119 1.942-.914 2.19-1.99.352-1.535.354-3.21.354-4.79s.003-3.254-.35-4.789Zm-14.13 1.19H4.312v7.791H2.95V13.34H1.51v-1.277H5.78v1.277Zm3.699 7.791H8.253v-.737c-.487.558-.949.83-1.4.83-.394 0-.665-.16-.788-.502-.067-.204-.108-.527-.108-1.005v-5.342h1.224v4.974c0 .287 0 .436.011.477.03.19.123.286.287.286.245 0 .502-.19.774-.573v-5.164h1.225v6.756Zm4.651-2.027c0 .624-.042 1.075-.124 1.361-.163.503-.49.76-.978.76-.435 0-.856-.243-1.265-.748v.655h-1.224v-9.069h1.224v2.962c.395-.487.815-.733 1.265-.733.487 0 .815.256.978.762.083.272.124.719.124 1.359v2.69Zm4.62-1.128h-2.448v1.198c0 .625.205.938.626.938.301 0 .477-.164.546-.491.012-.067.028-.339.028-.83h1.249v.179c0 .395-.015.666-.026.789a1.744 1.744 0 0 1-.286.733c-.34.49-.842.733-1.481.733-.64 0-1.128-.23-1.482-.692-.26-.338-.393-.871-.393-1.59v-2.366c0-.722.118-1.25.378-1.592.354-.462.841-.692 1.467-.692.614 0 1.101.23 1.444.692.257.342.38.87.38 1.592v1.4h-.001Z" fill="red"/>
    <path d="M16.916 15.394c-.41 0-.614.313-.614.938v.625h1.224v-.625c0-.625-.205-.938-.61-.938ZM12.372 15.394c-.201 0-.406.096-.61.298v4.118c.204.205.409.302.61.302.353 0 .533-.302.533-.912v-2.884c0-.61-.18-.922-.533-.922Z" fill="red"/>
    <path d="M13.056 9.257c.452 0 .921-.275 1.414-.839v.745h1.237V2.334H14.47v5.22c-.275.387-.534.578-.782.578-.166 0-.263-.097-.29-.29-.015-.04-.015-.19-.015-.48V2.334H12.15v5.4c0 .482.04.808.11 1.015.123.346.398.508.796.508ZM4.442 5.452v3.71h1.372v-3.71L7.464 0H6.078l-.936 3.598L4.167 0H2.724c.289.85.59 1.703.879 2.553.44 1.278.715 2.241.84 2.899ZM9.304 9.256c.62 0 1.101-.233 1.443-.699.26-.341.384-.88.384-1.605V4.56c0-.73-.124-1.264-.384-1.609-.342-.467-.823-.7-1.443-.7-.617 0-1.098.233-1.44.7-.264.345-.388.879-.388 1.609v2.39c0 .726.124 1.265.387 1.606.342.466.824.7 1.44.7Zm-.59-4.943c0-.632.19-.947.59-.947.399 0 .59.315.59.947v2.872c0 .632-.191.948-.59.948-.4 0-.59-.316-.59-.948V4.313Z" fill="#000"/>
</svg><svg viewBox="0 0 461.001 461.001" xml:space="preserve" id="icon__youtube-new" xmlns="http://www.w3.org/2000/svg">
    <path style="fill:#f61c0d" d="M365.257 67.393H95.744C42.866 67.393 0 110.259 0 163.137v134.728c0 52.878 42.866 95.744 95.744 95.744h269.513c52.878 0 95.744-42.866 95.744-95.744V163.137c0-52.878-42.866-95.744-95.744-95.744zm-64.751 169.663-126.06 60.123c-3.359 1.602-7.239-.847-7.239-4.568V168.607c0-3.774 3.982-6.22 7.348-4.514l126.06 63.881c3.748 1.899 3.683 7.274-.109 9.082z"/>
</svg></svg>