<svg viewBox="0 0 106 24" fill="none" xmlns="http://www.w3.org/2000/svg">
<path d="M9.06341 19.7944C11.4161 19.7944 13.3799 19.0216 14.9596 17.4807H15.0763L15.8492 19.3327H19.5872V0.82736H15.8492L15.0763 2.67935H14.9596C13.3799 1.13846 11.4112 0.36558 9.06341 0.36558C6.44341 0.36558 4.28519 1.25026 2.62764 3.06336C0.970082 4.87646 0.158318 7.19023 0.158318 10.0776C0.158318 15.7891 3.81854 19.7944 9.06341 19.7944ZM9.98698 14.3211C7.67321 14.3211 6.13231 12.5858 6.13231 10.0824C6.13231 7.61312 7.67321 5.84377 9.98698 5.84377C12.2619 5.84377 13.7639 7.69576 13.7639 9.85398V10.3158C13.7639 12.474 12.2619 14.3211 9.98698 14.3211ZM32.7698 19.7944C35.6232 19.7944 37.9758 18.8709 39.784 16.98C41.5971 15.0891 42.5207 12.8142 42.5207 10.0776C42.5207 7.34091 41.5971 5.06603 39.784 3.17516C37.9709 1.28428 35.6183 0.360718 32.7309 0.360718C29.8776 0.360718 27.525 1.28428 25.7167 3.17516C23.9036 5.06603 22.9801 7.34091 22.9801 10.0776C22.8634 15.3613 27.0632 19.8722 32.7698 19.7944ZM32.7698 14.2044C30.5727 14.2044 28.9541 12.4302 28.9541 10.0776C28.9541 7.72492 30.5727 5.95071 32.7698 5.95071C34.9669 5.95071 36.5856 7.72492 36.5856 10.0776C36.5856 12.4351 34.9669 14.2044 32.7698 14.2044ZM63.7627 1.0218H47.9552V5.72711C47.9552 8.11865 47.9163 9.89287 47.7996 11.0838C47.6829 12.2795 47.4156 13.3975 46.9878 14.4767H43.9061V23.688H48.7621V19.3327H60.4427V23.688H65.2987V14.4767H63.7578V1.0218H63.7627ZM58.0998 5.91668V14.4767H52.7042C53.166 12.9747 53.4382 10.9282 53.4771 9.34845C53.516 8.53668 53.516 7.41869 53.516 5.91668H58.0998ZM80.5326 7.65201H75.0982V0.82736H69.0853V19.3327H75.0982V12.508H80.5326V19.3327H86.5844V0.82736H80.5326V7.65201ZM89.5544 0.82736V5.91668H94.6826V19.3327H100.734V5.91668H105.901V0.82736H89.5544Z" fill="white"/>
</svg>
