<svg width="48" height="28" viewBox="0 0 48 28" fill="none" xmlns="http://www.w3.org/2000/svg">
<path d="M3.91327 4.49811V3.3947C3.91327 2.46141 3.35913 2.04338 2.48904 2.04338C1.99323 2.04338 1.5509 2.1649 1.30785 2.24753V2.87945C1.58492 2.75792 1.96406 2.64126 2.42098 2.64126C2.94595 2.64126 3.23275 2.91347 3.23275 3.29748V3.40442C2.98971 3.35095 2.6932 3.31206 2.43071 3.31206C1.78908 3.31206 1.05508 3.5551 1.05508 4.34742C1.05508 4.9842 1.57519 5.29043 2.13419 5.29043C2.61542 5.29043 2.99457 5.13488 3.29594 4.89184C3.40288 5.14461 3.63134 5.25154 3.91327 5.25154C4.06882 5.25154 4.2195 5.22724 4.35074 5.17377V4.67796C4.28755 4.69741 4.21465 4.71685 4.1466 4.71685C4.01535 4.72171 3.91327 4.6731 3.91327 4.49811ZM2.5571 3.79815C2.77584 3.79815 3.03832 3.83703 3.22303 3.87592V4.39603C2.97999 4.63908 2.65918 4.7606 2.32864 4.7606C2.0224 4.7606 1.75019 4.60505 1.75019 4.30368C1.75506 3.91967 2.16337 3.79815 2.5571 3.79815ZM5.52708 5.21266V3.12249L6.40203 4.47381H6.8152L7.69502 3.12249V5.21266H8.3561V2.13087H7.661L6.60619 3.7544L5.56111 2.13087H4.86601V5.21266H5.52708ZM10.6018 4.45436L9.56159 2.13087H8.82761L10.2907 5.24182L10.2275 5.39737C10.0477 5.87859 9.79492 6.11678 9.46438 6.11678C9.3623 6.11678 9.2505 6.1022 9.14843 6.07303V6.65633C9.28453 6.69036 9.42063 6.7098 9.55187 6.7098C10.0185 6.7098 10.456 6.43759 10.7914 5.63555L12.2351 2.13573H11.5157L10.6018 4.45436ZM13.3628 2.6121V2.13087H12.7503V6.62717H13.4357V4.81407C13.6496 5.05711 14.0093 5.29529 14.5488 5.29529C15.4724 5.29529 16.08 4.55644 16.08 3.67176C16.08 2.78709 15.4773 2.04824 14.5488 2.04824C13.9753 2.04338 13.6058 2.31558 13.3628 2.6121ZM15.38 3.67176C15.38 4.27451 14.9814 4.69255 14.4224 4.69255C13.9461 4.69255 13.5864 4.38631 13.4406 4.04605V3.29262C13.5864 2.95722 13.9461 2.65098 14.4224 2.65098C14.9814 2.64612 15.38 3.06416 15.38 3.67176ZM16.5564 3.69607C16.5564 4.79462 17.3973 5.29529 18.2188 5.29529C18.6125 5.29529 18.943 5.22238 19.2396 5.08141V4.44464C18.9965 4.58561 18.666 4.68282 18.3403 4.68282C17.7862 4.68282 17.2563 4.36687 17.2563 3.6669C17.2563 2.94264 17.8105 2.65098 18.3549 2.65098C18.6709 2.65098 18.9868 2.7482 19.2104 2.90861V2.2767C18.9382 2.11629 18.6077 2.03852 18.2577 2.03852C17.4362 2.04338 16.5564 2.54404 16.5564 3.69607ZM20.6152 5.21266V3.93425H21.111L22.1269 5.21266H22.9192L21.6797 3.65718L22.7977 2.12601H22.0151L21.1304 3.34609H20.6249V2.12601H19.9395V5.2078H20.6152V5.21266ZM23.9546 5.21266L25.6073 3.1954V5.21266H26.2927V2.13087H25.6996L24.047 4.14813V2.13087H23.3616V5.21266H23.9546ZM29.5592 1.43577V0.87677C29.2335 1.08093 28.9418 1.14898 28.621 1.14898C28.3002 1.14898 28.0086 1.08579 27.6829 0.87677V1.43577C27.9648 1.6302 28.2759 1.69826 28.621 1.69826C28.9662 1.69826 29.2772 1.62534 29.5592 1.43577ZM27.7461 5.21266L29.3988 3.1954V5.21266H30.0841V2.13087H29.4911L27.8384 4.14813V2.13087H27.1579V5.21266H27.7461ZM1.09398 10.7395C1.09398 11.804 1.90574 12.363 2.76611 12.363C3.63135 12.363 4.43825 11.804 4.43825 10.7395C4.43825 9.67493 3.63621 9.11593 2.76611 9.11593C1.90088 9.11107 1.09398 9.67007 1.09398 10.7395ZM3.73342 10.7395C3.73342 11.3422 3.33483 11.7359 2.76125 11.7359C2.1828 11.7359 1.78421 11.3422 1.78421 10.7395C1.78421 10.1367 2.1828 9.74298 2.76125 9.74298C3.33483 9.74298 3.73342 10.1318 3.73342 10.7395ZM8.18597 10.8464C8.18597 9.91311 7.52003 9.34925 6.74229 9.34925C6.26593 9.34925 5.86734 9.58257 5.66318 9.8888C5.75554 9.53396 5.92567 9.13537 6.3194 8.91177C6.97562 8.54721 7.48115 8.69303 7.91376 8.36735V7.70142C7.47628 8.13403 6.80062 7.89585 5.91594 8.44027C5.3618 8.78539 4.96322 9.46591 4.96322 10.5353C4.96322 11.7748 5.66319 12.3678 6.58189 12.3678C7.51032 12.363 8.18597 11.8234 8.18597 10.8464ZM5.65346 10.861C5.65346 10.4284 5.97428 9.94713 6.56731 9.94713C7.18464 9.94713 7.486 10.3846 7.486 10.861C7.486 11.3373 7.18464 11.7748 6.56731 11.7748C5.96942 11.77 5.65346 11.3325 5.65346 10.861ZM10.0331 9.78187H11.0733V12.2803H11.7587V9.19856H9.38174C9.32341 10.7297 9.18245 11.7554 8.66234 11.7554C8.59915 11.7554 8.53595 11.7408 8.46304 11.7165V12.256C8.61859 12.3144 8.75955 12.3387 8.88593 12.3387C9.71228 12.3387 9.94559 11.2693 10.0331 9.78187ZM15.2537 11.5658V10.4624C15.2537 9.5291 14.6995 9.11107 13.8294 9.11107C13.3336 9.11107 12.8913 9.23259 12.6482 9.31522V9.94713C12.9253 9.82561 13.3045 9.70895 13.7614 9.70895C14.2863 9.70895 14.5731 9.9763 14.5731 10.3652V10.4721C14.3301 10.4186 14.0336 10.3798 13.7711 10.3798C13.1295 10.3798 12.3955 10.6228 12.3955 11.4151C12.3955 12.0519 12.9156 12.3581 13.4746 12.3581C13.9558 12.3581 14.335 12.2026 14.6363 11.9595C14.7433 12.2123 14.9717 12.3192 15.2537 12.3192C15.4092 12.3192 15.5599 12.2949 15.6911 12.2415V11.7457C15.6279 11.7651 15.555 11.7845 15.487 11.7845C15.3557 11.7894 15.2537 11.7408 15.2537 11.5658ZM13.8975 10.8658C14.1162 10.8658 14.3787 10.9047 14.5634 10.9436V11.4637C14.3204 11.7068 13.9996 11.8283 13.669 11.8283C13.3628 11.8283 13.0906 11.6727 13.0906 11.3714C13.0954 10.9874 13.5038 10.8658 13.8975 10.8658ZM16.012 10.7638C16.012 11.8623 16.8529 12.363 17.6744 12.363C18.0681 12.363 18.3986 12.2901 18.6951 12.1491V11.5123C18.4521 11.6533 18.1216 11.7505 17.7959 11.7505C17.2417 11.7505 16.7119 11.4346 16.7119 10.7346C16.7119 10.0103 17.2661 9.71868 17.8105 9.71868C18.1264 9.71868 18.4424 9.81589 18.666 9.9763V9.34439C18.3938 9.18398 18.0632 9.10621 17.7133 9.10621C16.8918 9.11107 16.012 9.61174 16.012 10.7638ZM20.8145 12.2803V9.80131H21.8742V9.19856H19.0597V9.80131H20.1242V12.2803H20.8145ZM23.104 12.2803V11.0408H24.6448V12.2803H25.3302V9.19856H24.6448V10.4381H23.104V9.19856H22.4186V12.2803H23.104ZM26.001 10.7395C26.001 11.804 26.8128 12.363 27.6732 12.363C28.5384 12.363 29.3453 11.804 29.3453 10.7395C29.3453 9.67493 28.5433 9.11593 27.6732 9.11593C26.8079 9.11107 26.001 9.67007 26.001 10.7395ZM28.6405 10.7395C28.6405 11.3422 28.2419 11.7359 27.6683 11.7359C27.0898 11.7359 26.6913 11.3422 26.6913 10.7395C26.6913 10.1367 27.0898 9.74298 27.6683 9.74298C28.2419 9.74298 28.6405 10.1318 28.6405 10.7395ZM32.4125 8.50346V7.94446C32.0868 8.14862 31.7952 8.21667 31.4744 8.21667C31.1535 8.21667 30.8619 8.15348 30.5362 7.94446V8.50346C30.8181 8.69789 31.1292 8.76595 31.4744 8.76595C31.8195 8.76595 32.1306 8.69303 32.4125 8.50346ZM30.5994 12.2803L32.2521 10.2631V12.2803H32.9375V9.19856H32.3445L30.6917 11.2158V9.19856H30.0064V12.2803H30.5994ZM1.65784 20.1744V19.3432H4.13688V20.1744H4.78337V18.7793H4.32644V16.2614H1.91546C1.93004 17.3356 1.7988 18.1182 1.42938 18.7793H1.00648V20.1744H1.65784ZM2.56195 16.8301H3.6362V18.7842H2.15364C2.41127 18.2349 2.53765 17.6565 2.56195 16.8301ZM5.15765 17.8023C5.15765 18.8668 5.96941 19.4258 6.82978 19.4258C7.69502 19.4258 8.50192 18.8668 8.50192 17.8023C8.50192 16.7378 7.69988 16.1788 6.82978 16.1788C5.96941 16.1788 5.15765 16.7378 5.15765 17.8023ZM7.79711 17.8023C7.79711 18.405 7.39852 18.7988 6.82493 18.7988C6.24649 18.7988 5.8479 18.405 5.8479 17.8023C5.8479 17.1995 6.24649 16.8058 6.82493 16.8058C7.39852 16.8107 7.79711 17.1995 7.79711 17.8023ZM9.82894 19.348V17.2579L10.7039 18.6092H11.1171L11.9969 17.2579V19.348H12.658V16.2663H11.9629L10.9081 17.8898L9.86297 16.2663H9.16786V19.348H9.82894ZM15.7203 19.348V18.1085H17.2612V19.348H17.9466V16.2663H17.2612V17.5058H15.7203V16.2663H15.0349V19.348H15.7203ZM21.4367 18.6335V17.5301C21.4367 16.5968 20.8825 16.1788 20.0124 16.1788C19.5166 16.1788 19.0743 16.3003 18.8313 16.3829V17.0148C19.1083 16.8933 19.4875 16.7766 19.9444 16.7766C20.4694 16.7766 20.7561 17.0488 20.7561 17.4329V17.5398C20.5131 17.4863 20.2166 17.4474 19.9541 17.4474C19.3125 17.4474 18.5785 17.6905 18.5785 18.4828C18.5785 19.1196 19.0986 19.4258 19.6576 19.4258C20.1388 19.4258 20.518 19.2703 20.8193 19.0272C20.9263 19.28 21.1547 19.3869 21.4367 19.3869C21.5922 19.3869 21.7429 19.3626 21.8742 19.3091V18.8133C21.811 18.8328 21.738 18.8522 21.67 18.8522C21.5436 18.8571 21.4367 18.8085 21.4367 18.6335ZM20.0854 17.9335C20.3041 17.9335 20.5666 17.9724 20.7513 18.0113V18.5314C20.5083 18.7745 20.1874 18.896 19.8569 18.896C19.5507 18.896 19.2785 18.7404 19.2785 18.4391C19.2785 18.055 19.6916 17.9335 20.0854 17.9335ZM23.0019 16.7426V16.2614H22.3894V20.7577H23.0748V18.9446C23.2887 19.1876 23.6484 19.4258 24.1879 19.4258C25.1115 19.4258 25.7191 18.687 25.7191 17.8023C25.7191 16.9176 25.1164 16.1788 24.1879 16.1788C23.6095 16.1788 23.2449 16.451 23.0019 16.7426ZM25.0191 17.8023C25.0191 18.405 24.6205 18.8231 24.0615 18.8231C23.5852 18.8231 23.2255 18.5168 23.0796 18.1766V17.4231C23.2255 17.0877 23.5852 16.7815 24.0615 16.7815C24.6205 16.7815 25.0191 17.1995 25.0191 17.8023ZM26.1906 17.8023C26.1906 18.8668 27.0024 19.4258 27.8627 19.4258C28.728 19.4258 29.5349 18.8668 29.5349 17.8023C29.5349 16.7378 28.7328 16.1788 27.8627 16.1788C27.0024 16.1788 26.1906 16.7378 26.1906 17.8023ZM28.8349 17.8023C28.8349 18.405 28.4363 18.7988 27.8627 18.7988C27.2843 18.7988 26.8857 18.405 26.8857 17.8023C26.8857 17.1995 27.2843 16.8058 27.8627 16.8058C28.4363 16.8107 28.8349 17.1995 28.8349 17.8023ZM30.4973 20.1744V19.3432H32.9764V20.1744H33.6228V18.7793H33.1659V16.2614H30.7549C30.7695 17.3356 30.6383 18.1182 30.2689 18.7793H29.846V20.1744H30.4973ZM31.4014 16.8301H32.4757V18.7842H30.9931C31.2508 18.2349 31.3771 17.6565 31.4014 16.8301ZM34.945 19.348V18.1085H36.4859V19.348H37.1713V16.2663H36.4859V17.5058H34.945V16.2663H34.2596V19.348H34.945ZM37.8421 17.8023C37.8421 18.8668 38.6538 19.4258 39.5142 19.4258C40.3795 19.4258 41.1863 18.8668 41.1863 17.8023C41.1863 16.7378 40.3843 16.1788 39.5142 16.1788C38.649 16.1788 37.8421 16.7378 37.8421 17.8023ZM40.4815 17.8023C40.4815 18.405 40.0829 18.7988 39.5094 18.7988C38.9309 18.7988 38.5323 18.405 38.5323 17.8023C38.5323 17.1995 38.9309 16.8058 39.5094 16.8058C40.0829 16.8107 40.4815 17.1995 40.4815 17.8023ZM42.5377 19.348V16.869H44.1515V16.2663H41.8523V19.348H42.5377ZM44.4042 17.8023C44.4042 18.8668 45.216 19.4258 46.0764 19.4258C46.9416 19.4258 47.7485 18.8668 47.7485 17.8023C47.7485 16.7378 46.9465 16.1788 46.0764 16.1788C45.216 16.1788 44.4042 16.7378 44.4042 17.8023ZM47.0486 17.8023C47.0486 18.405 46.65 18.7988 46.0764 18.7988C45.4979 18.7988 45.0993 18.405 45.0993 17.8023C45.0993 17.1995 45.4979 16.8058 46.0764 16.8058C46.65 16.8107 47.0486 17.1995 47.0486 17.8023ZM2.7175 26.4109V23.9318H3.77717V23.3291H0.962723V23.9318H2.02725V26.4109H2.7175ZM6.12982 26.4109C6.84437 26.4109 7.14574 26.0366 7.14574 25.5651C7.14574 25.1859 6.90756 24.9429 6.62077 24.8505C6.88326 24.7339 7.05825 24.4908 7.05825 24.1506C7.05825 23.6693 6.70341 23.3291 6.08122 23.3291H4.32158V26.4109H6.12982ZM5.00211 25.1033H5.97428C6.21247 25.1033 6.45064 25.1859 6.45064 25.5019C6.45064 25.7984 6.24648 25.8956 5.96455 25.8956H5.00696V25.1033H5.00211ZM5.00211 23.8492H5.92081C6.13468 23.8492 6.35828 23.9415 6.35828 24.2429C6.35828 24.52 6.16385 24.6172 5.92081 24.6172H5.00211V23.8492ZM7.64641 24.87C7.64641 25.9345 8.45817 26.4935 9.31854 26.4935C10.1838 26.4935 10.9907 25.9345 10.9907 24.87C10.9907 23.8054 10.1886 23.2464 9.31854 23.2464C8.45331 23.2464 7.64641 23.8054 7.64641 24.87ZM10.2859 24.87C10.2859 25.4727 9.88727 25.8665 9.31369 25.8665C8.73525 25.8665 8.33665 25.4727 8.33665 24.87C8.33665 24.2672 8.73525 23.8735 9.31369 23.8735C9.88727 23.8735 10.2859 24.2672 10.2859 24.87ZM12.2642 23.8103V23.3291H11.6518V27.8254H12.3371V26.0123C12.551 26.2553 12.9107 26.4935 13.4503 26.4935C14.3738 26.4935 14.9815 25.7547 14.9815 24.87C14.9815 23.9853 14.3787 23.2464 13.4503 23.2464C12.8767 23.2464 12.5073 23.5138 12.2642 23.8103ZM14.2815 24.87C14.2815 25.4727 13.8829 25.8908 13.3239 25.8908C12.8475 25.8908 12.4878 25.5845 12.342 25.2443V24.4908C12.4878 24.1554 12.8475 23.8492 13.3239 23.8492C13.8829 23.8492 14.2815 24.2672 14.2815 24.87ZM18.2091 26.4109V23.3291H17.5237V24.8214C17.3195 24.8991 17.1202 24.938 16.8626 24.938C16.43 24.938 16.1578 24.8019 16.1578 24.3547V23.3339H15.4724V24.4131C15.4724 25.1908 15.9779 25.5456 16.6682 25.5456C17.0133 25.5456 17.2661 25.4922 17.5285 25.3998V26.4206H18.2091V26.4109ZM18.875 24.87C18.875 25.9539 19.677 26.4935 20.62 26.4935C21.0527 26.4935 21.4415 26.4157 21.7235 26.2796V25.6866C21.461 25.813 21.1207 25.9053 20.7464 25.9053C20.1826 25.9053 19.643 25.672 19.5652 25.1227H21.8839C22.0832 24.2283 21.6603 23.2416 20.4305 23.2416C19.7208 23.2464 18.875 23.752 18.875 24.87ZM21.2714 24.6123H19.5604C19.5847 24.0922 20.0027 23.8152 20.4645 23.8152C21.145 23.82 21.3103 24.345 21.2714 24.6123ZM22.3845 24.8991C22.3845 25.9977 23.2255 26.4984 24.047 26.4984C24.4407 26.4984 24.7712 26.4255 25.0677 26.2845V25.6477C24.8247 25.7887 24.4942 25.8859 24.1685 25.8859C23.6143 25.8859 23.0845 25.5699 23.0845 24.87C23.0845 24.1457 23.6386 23.8541 24.1831 23.8541C24.499 23.8541 24.815 23.9513 25.0386 24.1117V23.4798C24.7664 23.3194 24.4358 23.2416 24.0858 23.2416C23.2644 23.2464 22.3845 23.7471 22.3845 24.8991ZM27.1871 26.4109V23.9318H28.2467V23.3291H25.4323V23.9318H26.4968V26.4109H27.1871ZM30.5994 26.4109C31.3139 26.4109 31.6153 26.0366 31.6153 25.5651C31.6153 25.1859 31.3771 24.9429 31.0903 24.8505C31.3528 24.7339 31.5278 24.4908 31.5278 24.1506C31.5278 23.6693 31.173 23.3291 30.5508 23.3291H28.7911V26.4109H30.5994ZM29.4765 25.1033H30.4487C30.6869 25.1033 30.9251 25.1859 30.9251 25.5019C30.9251 25.7984 30.7209 25.8956 30.439 25.8956H29.4814V25.1033H29.4765ZM29.4765 23.8492H30.3952C30.6091 23.8492 30.8327 23.9415 30.8327 24.2429C30.8327 24.52 30.6383 24.6172 30.3952 24.6172H29.4765V23.8492ZM34.9353 25.7012V24.5978C34.9353 23.6645 34.3811 23.2464 33.5111 23.2464C33.0152 23.2464 32.5729 23.368 32.3299 23.4506V24.0825C32.6069 23.961 32.9861 23.8443 33.443 23.8443C33.968 23.8443 34.2548 24.1165 34.2548 24.5005V24.6075C34.0117 24.554 33.7152 24.5151 33.4527 24.5151C32.8111 24.5151 32.0771 24.7582 32.0771 25.5505C32.0771 26.1873 32.5972 26.4935 33.1562 26.4935C33.6374 26.4935 34.0166 26.338 34.318 26.0949C34.4249 26.3477 34.6534 26.4546 34.9353 26.4546C35.0908 26.4546 35.2415 26.4303 35.3728 26.3768V25.881C35.3096 25.9005 35.2367 25.9199 35.1686 25.9199C35.0374 25.9248 34.9353 25.8713 34.9353 25.7012ZM33.5791 25.0012C33.7978 25.0012 34.0603 25.0401 34.245 25.079V25.5991C34.002 25.8421 33.6812 25.9637 33.3506 25.9637C33.0444 25.9637 32.7722 25.8081 32.7722 25.5067C32.7771 25.1227 33.1902 25.0012 33.5791 25.0012Z" fill="white"/>
</svg>
